<?xml version="1.0" encoding="UTF-8"?>
<svg id="Layer_1" xmlns="http://www.w3.org/2000/svg" version="1.1" viewBox="0 0 2732 2048">
  <!-- Generator: Adobe Illustrator 29.1.0, SVG Export Plug-In . SVG Version: 2.1.0 Build 142)  -->
  <defs>
    <style>
      .st0 {
        fill: #00a909;
      }

      .st1 {
        fill: #fc9502;
      }

      .st2 {
        fill: #2db05e;
      }

      .st3 {
        fill: #004fff;
      }

      .st4 {
        fill: #ff9501;
      }

      .st5 {
        fill: #ff3139;
      }

      .st6 {
        fill: #01aa0d;
      }

      .st7 {
        fill: #2e3192;
      }

      .st8 {
        fill: #fdfed2;
      }

      .st9 {
        fill: #00a434;
      }

      .st10 {
        fill: #ff3101;
      }

      .st11 {
        fill: #00aa0f;
      }

      .st12 {
        fill: #d44046;
      }

      .st13 {
        fill: #fc0c72;
      }

      .st14 {
        fill: #741c85;
      }

      .st15 {
        fill: #ec008c;
      }

      .st16 {
        fill: #0d2168;
      }

      .st17 {
        fill: #79287e;
      }

      .st18 {
        fill: #fe9500;
      }

      .st19 {
        fill: #721d85;
      }

      .st20 {
        fill: #6fd537;
      }

      .st21 {
        fill: #0072bf;
      }

      .st22 {
        fill: #f89303;
      }

      .st23 {
        fill: #fea50f;
      }

      .st24 {
        fill: #0273b3;
      }

      .st25 {
        fill: #bb4516;
      }

      .st26 {
        fill: #0171b6;
      }

      .st27 {
        fill: #0074b3;
      }

      .st28 {
        fill: #fbb040;
      }

      .st29 {
        fill: #ff3439;
      }
    </style>
  </defs>
  <g>
    <path class="st26" d="M1858.83,989.17c-6.82-3.79-13.04-5.61-16.37-8.49-3.33-2.88-6.67,4.24-10.76,6.37-4.09,2.12-3.03,11.82,2.88,11.37,5.91-.45,5.15-3.33,16.82-3.49,4.09-.05,4.55-.61,6.82,1.97,2.27,2.58,7.73,3.64,8.03.91.3-2.73-.61-4.85-7.43-8.64Z"/>
    <path class="st26" d="M1741.99,999.01c-4.09,1.59-6.37,3.58-9.78.99-3.41-2.59-5.23-3.5-11.14-3.27-5.91.23-13.87-2.73-15.69,6.82-1.28,6.73-2.73,10.24,4.77,10.58,7.5.34,5.68-4.77,14.1-5.29,8.41-.51,15.23.17,19.78-2.79,4.55-2.96,2.05-8.63-2.05-7.04Z"/>
    <path class="st26" d="M1784.05,1003.78c-5.23,1.36-25.24-3.71-25.24,1.53,0,4.16,2.73,3.02,9.78,3.25,7.05.23,18.64,4.09,20.01,0,1.36-4.09.68-6.14-4.55-4.77Z"/>
    <path class="st26" d="M1783.33,1013.99c-3.32-2.3-3.02,5.11-2.8,6.41.11.64.31,1.33.85,1.67.58.36,1.38.18,1.89-.27.51-.45.79-1.11.97-1.77.32-1.14.42-2.35.29-3.53-.11-.95-.42-1.96-1.2-2.51Z"/>
    <path class="st26" d="M1787.21,1028.82c-1.13.48-.58,3.01-.56,4.07,0,.49.03,1.05.34,1.38.37.4,1.01.28,1.38-.13.37-.4.54-1,.66-1.58.12-.57.21-1.16.16-1.75-.04-.59-.23-1.18-.59-1.59-.36-.41-.92-.6-1.39-.4Z"/>
    <path class="st26" d="M1837.15,869.43c3.33.45,1.21-4.24,2.43-7.73,1.21-3.49,8.49-5.15,12.13-6.82,3.64-1.67,1.06-6.97,5.46-8.18,4.4-1.21,1.82-15.92,1.21-20.16-.61-4.24-5.76-1.52-6.97-4.85-1.21-3.33.15-5.31,3.64-7.88,3.49-2.58,2.62-5.64,0-7.12-6.67-3.79-12.73,13.04-15.76,18.34-3.03,5.31-1.97,9.25-1.97,13.94s-.76,6.37-3.33,9.55c-2.58,3.18-5.46,7.12-1.82,11.06,3.64,3.94,1.67,9.4,5,9.85Z"/>
    <path class="st26" d="M1871.86,806.13c-.15,5.36,4.24,3.58,10,2.98,5.76-.61,7.88-12.88,10.16-15.76,2.27-2.88.45-6.96-3.64-8.79-5.76-2.58-8.34,4.24-13.19,9.25-4.85,5-3.18,6.97-3.33,12.33Z"/>
    <path class="st26" d="M1885.05,885.35c-4.7-.61-12.73-5.91-15.76-8.79-3.03-2.88,0-5.46,1.67-8.49,1.67-3.03,15.01-7.43,19.78-8.34,4.77-.91,2.65-12.13,1.44-14.4-1.21-2.27.74-9.3-2.88-9.7-6.82-.76-7.43,2.58-11.97,5.61-4.55,3.03-8.64,2.88-10.16,6.67-1.52,3.79,2.58,5,2.27,8.79-.3,3.79-4.4,2.43-9.76,4.4-5.37,1.97-2.97,12.43-7.06,13.34-4.09.91-5.31-1.97-10.16-1.67-4.85.3-5.76,6.82-6.06,11.37-.3,4.55,3.94,8.94,7.21,10.46,3.27,1.52,1.28,6.97,1.45,13.94.17,6.97-.78,9.85-1.38,13.04-.61,3.18,3.18,7.43,7.12,8.49,3.94,1.06,10.76,18.34,14.1,19.55,3.33,1.21,5.46-1.97,2.27-5.31-3.18-3.33-9.7-19.7-12.58-25.46-2.88-5.76-1.21-21.07-1.21-26.37s5.61-3.33,10.91-3.79c5.31-.45,7.43,3.03,13.04,2.88,5.61-.15,8.03,4.55,12.43,4.7,4.4.15,2.27-4.85,2.27-8.19s-2.27-2.12-6.97-2.73Z"/>
    <path class="st26" d="M1832.76,948.17c0,1.48.23,2.84,3.62,2.73,3.4-.11,2.86-2.73,1.83-4.43-1.02-1.71.8-6.37,2.61-7.73,1.82-1.36,1.14-3.64-1.02-4.21-2.16-.57-1.59-3.75-3.43-3.75-3.43,0-1.8,3.87-4.65,3.87s-.45-1.93-3.98-1.82c-3.52.11-1.82,2.61-2.16,5.46-.34,2.84,3.52,3.41,5.8,5.23s1.36,3.18,1.36,4.66Z"/>
    <path class="st26" d="M1817.25,928.88c-.59.73-.87,1.66-1.03,2.59-.23,1.34-.21,2.71.05,4.04.16.83.48,1.73,1.23,2.13.53.29,1.2.25,1.76.02.56-.24,1.02-.66,1.41-1.12,1.41-1.68,2.17-4.45,1.39-6.59-.76-2.11-3.26-3.01-4.81-1.07Z"/>
    <path class="st26" d="M1820.92,946.4c-1.45-.33-1.89,2.13-1.83,3.49.04.87.45,1.78,1.12,2.01.49.16,1.02-.06,1.39-.49.37-.43.59-1.03.69-1.64.12-.69.1-1.43-.13-2.07-.23-.64-.7-1.17-1.25-1.3Z"/>
    <path class="st26" d="M1847.46,953.23c.62-.06,1.25-.14,1.84-.34s1.15-.56,1.5-1.07c.8-1.18-.02-2.64-1.32-2.98-1.26-.32-3.12.11-4.26.59-.74.31-1.5.85-1.63,1.65-.14.85.53,1.67,1.33,1.98.8.32,1.69.25,2.55.17Z"/>
  </g>
  <path class="st28" d="M1206.44,1322.64c4.09,0,8.94-.76,11.37-2.43,2.43-1.67,3.64-1.82,8.03-1.97,4.4-.15,6.21,3.64,9.7,4.4,3.49.76,6.67,5.61,9.55,8.03s1.67,6.06-3.33,6.82c-5,.76-9.7,3.33-12.73,5.61-3.03,2.27-1.36,5.61-5.46,4.85-4.09-.76-9.4-11.22-13.79-12.73-4.4-1.52-5-4.4-11.07-4.4s-11.22-.61-10.91-5.15c.3-4.55-2.43-5.91,2.88-5.91s6.21,2.88,15.76,2.88Z"/>
  <g>
    <path class="st27" d="M1290.42,1327.95c-3.49-.15-5.02-3.88-8.79-3.49-4.4.45-3.79,0-6.37,2.27-2.58,2.27-.76,1.52-5.15,4.7-4.4,3.18-3.94,4.24-4.4,9.7-.45,5.46,2.58,8.34-1.21,8.79-3.79.45-5.76.91-5.76,3.79s2.88,1.21,7.28,1.06c4.4-.15,7.88,1.82,13.34,1.82s5.31-1.82,7.12-4.7c1.82-2.88,4.55-7.88,7.09-10.61,2.54-2.73,3.22-7.12,3.37-10.76.15-3.64-3.03-2.42-6.52-2.58Z"/>
    <path class="st27" d="M1368.48,1346.74c-5.91.3-6.06,4.7-10,5.15-3.94.46-8.79-1.36-8.94-5-.15-3.64-4.7-4.55-7.88-6.38-3.18-1.83-1.36-6.05-5.61-6.2-4.24-.15-3.33,3.03-6.67,2.88-3.33-.15-4.85-4.32-8.49-4.04-6.67.51-6.21,2.07-7.43,4.19-1.21,2.12-2.27,1.36-7.28,3.17-5,1.8-3.49,5.32-3.18,9.31.3,3.99-2.43,4.64-3.03,7.83s.76,5.61,3.94,5.61,6.97,2.58,12.13,3.18c5.15.61,5-3.94,7.58-4.55,2.58-.61,5.91,3.49,11.67,1.36,5.76-2.12,8.03-4.09,11.82-5.91,3.79-1.82,10.91-1.06,16.52-.76,5.61.3,6.82-1.52,8.64-3.94,1.82-2.43,3.64-2.12,3.79-4.59.15-2.47-1.67-1.63-7.58-1.32Z"/>
    <path class="st27" d="M1339.71,1327.82c1.14-.59,2.24-1.38,2.86-2.5.63-1.12.68-2.64-.15-3.62-1.71-2.05-5.79.87-6.95,2.41-.84,1.11-1,2.87.03,3.81,1.11,1,2.87.59,4.2-.1Z"/>
    <path class="st27" d="M1411.22,1332.19c-.15-4.09-2.27-4.55-7.88-4.4-5.61.15-3.94,6.52-4.7,10.46-.76,3.94-5.46,2.58-6.21,0-.76-2.58,2.43-5,1.67-8.64-.76-3.64-3.79-3.18-8.18-3.03-4.4.15-5.31,5.31-8.94,5.31s-6.82-5.61-9.09-9.85c-2.27-4.24-4.72-3.79-8.79-4.24-4.98-.56-3.49,2.12-6.82,2.27-3.33.15-3.18.76-3.18,2.88s0,4.09,2.58,4.7c2.58.61,4.09,4.85,8.03,5.5,3.94.65,8.34,2.54,10.46,4.96,2.12,2.43,7.88,2.12,9.55,1.67,1.67-.45,3.94,1.06,5.15,5.15,1.21,4.09-1.82,3.64-2.12,5.76-.3,2.12-.3,3.79,1.52,3.94,1.82.15,2.43,0,4.24-1.67,1.82-1.67,4.4-.61,6.67-3.14,2.27-2.53,4.24-3.84,8.03-3.99,3.79-.15,5.31,3.03,8.79,2.27,3.49-.76-.61-11.82-.76-15.92Z"/>
  </g>
  <g>
    <path class="st11" d="M1434.13,1340.45c1,.23,2.06.22,3.06,0,.65-.15,1.37-.5,1.51-1.15.26-1.26-1.39-1.79-2.35-1.75-1.07.04-2.48-.2-3.26.72-.35.42-.46,1.07-.15,1.53.26.39.74.56,1.19.66Z"/>
    <path class="st11" d="M1496.26,1409.04c-5.91-1.36-6.59-9.09-10.46-12.96-3.86-3.87-4.55,0-9.78,0s-3.18-2.05-3.64-6.14-3.18-2.73-7.73-4.32c-4.55-1.59-2.27-6.14-6.59-6.14s-3.64-.23-7.05,2.05c-3.41,2.27-13.42,1.2-19.78.91-10.47-.47-14.06,1.36-14.06,1.36-4.51,2.5-9.13,2.73-8.22,6.37s-.68,4.55,8.22,7.96c8.9,3.41,20.43,2.05,26.34,2.27,5.91.23,6.14,5.68,11.37,7.05,5.23,1.36,10.23,10,11.62,13.41,1.39,3.41,10.66,4.77,17.26,5.46,6.59.68,8.87-2.27,12.05-5.46s6.37-4.09,5.91-7.05c-.45-2.96.46-3.41-5.46-4.77Z"/>
    <path class="st11" d="M1551.48,1439.71c-.73,1.06-.8,2.7.2,3.52.91.74,2.27.51,3.33.03,1.17-.53,2.22-1.31,3.07-2.28.69-.79,1.25-1.93.76-2.87-1.46-2.77-6.23-.06-7.36,1.6Z"/>
    <path class="st11" d="M1593.11,1332.65c-4.55,2.58-6.37,2.43-6.82,5.61-.45,3.18-.3,5.46-5.15,5.61-4.85.15-10,.15-12.13-1.97-2.12-2.12-2.42-4.09-11.06-4.09s-12.73-.3-17.13,2.27c-4.4,2.58-8.03,4.24-11.22,1.67s-7.43-7.12-11.37-7.28c-3.94-.15-5.46-5.91-11.67-5.76-6.21.15-9.7-2.58-17.28-2.27-7.58.3-13.94-.61-18.64,2.27-4.7,2.88-6.82,6.94-11.52,7.49s-6.21-.39-6.52,2.88c-.3,3.27-4.4,13.88,3.94,14.64,4.24.39,4.09-.91,6.67-3.03,2.58-2.12,2.43-.66,5.76-.86,3.33-.2,3.79,2.68,8.34,2.68s6.82-.97,11.22-.86,2.58,1.56,6.21,2.12c3.64.56,5.91-2.47,8.64-.8s1.06,4.4,8.19,4.85c7.12.45,15.61,1.52,16.37-2.27.76-3.79,3.49-3.49,7.43-3.49s3.03,2.06,7.58,2.62c4.55.56,11.37.26,14.7-2.02,3.33-2.27,5.76-5.31,9.55-5.15,3.79.15,4.4,2.43,8.79,2.43s10-3.03,13.64-4.7c3.64-1.67,8.94-1.21,9.7-4.7.76-3.49.15-6.37,1.52-7.88,1.36-1.52-3.18-2.58-7.73,0Z"/>
    <path class="st11" d="M1639.27,1334.24c.15-1.74.76-2.05-3.49-1.97-4.24.08-8.72.53-8.79,2.43-.08,1.89-.45,4.4,3.26,4.77,2.87.29,3.41-1.59,5.15-2.8,1.74-1.21,3.71-.68,3.87-2.43Z"/>
    <path class="st11" d="M1619.56,1330.37c4.93.15,6.06,1.52,6.14-.61.08-2.12.15-4.32-3.33-4.4s-6.9.68-6.9,2.8c0,1.67-.83,2.05,4.09,2.2Z"/>
    <path class="st11" d="M1603.29,1321c1.07.09,2.15.09,3.23,0,.54-.05,1.19-.22,1.31-.74.11-.49-.34-.93-.78-1.17-.97-.53-5.89-1.5-5.59.78.05.39.35.71.7.88.35.17.75.22,1.14.26Z"/>
    <path class="st11" d="M1606.98,1326.52c-.1.59.21,1.25.78,1.46.51.18,1.11-.03,1.44-.45.33-.42.42-1.01.29-1.53-.05-.22-.15-.45-.32-.6-.82-.75-2.04.29-2.19,1.13Z"/>
    <path class="st11" d="M1644.09,1330.93c.81-.1,1.26-.95,1.73-1.62.63-.91,1.53-1.62,2.56-2.03.57-.23,1.19-.37,1.63-.8.43-.43.53-1.27,0-1.58-.26-.15-.59-.13-.89-.07-.93.17-1.74.76-2.66.85-1.1.11-1.99-.07-2.92.71-.81.68-1.25,1.77-1.13,2.82.05.44.2.89.49,1.22.29.34.74.55,1.19.5Z"/>
    <path class="st11" d="M1662.68,1334.71c.47.5.76,1.14,1.21,1.65,1.29,1.46,3.73,1.47,5.32.35,1.59-1.12,2.4-3.1,2.57-5.04.05-.61.01-1.31-.44-1.71-.58-.52-1.53-.26-2.12.25-1.2,1.05-2.2,3.21-4.18,2.69-1.19-.31-3.04-3.16-4.39-1.73-.53.56-.26,1.51.27,2.07.52.56,1.24.91,1.77,1.47Z"/>
    <path class="st11" d="M1686.11,1332.26c4.55.01,5.31-.37,5.76-2.04.45-1.67,19.02.23,20.46-1.06,1.44-1.29,2.73-.15,2.96-3.18.23-3.03.23-2.88-1.97-2.88s-22.21-3.26-22.13,0c.08,3.27-1.59,3.41-4.4,3.56-2.8.15-6.37.13-6.82,3.02-.33,2.12,1.59,2.57,6.14,2.58Z"/>
    <path class="st11" d="M1628.13,1443.7c-2.27-1.56-.79-3.89-4.09-3.39-3.33.5-3.18,1.62-3.79,3.39-.61,1.77-6.06,5.35-11.07,7.17-5,1.82-7.28,1.97-7.12,3.79.15,1.82-1.52,3.33,2.43,3.64,3.94.3,6.37-2.73,10.16-3.33,3.79-.61,5.46-5.15,9.4-6.82,3.94-1.67,6.37-2.88,4.09-4.44Z"/>
    <path class="st11" d="M1713.31,1365.84c-2.27,0-4.09,4.09-6.52,2.12-2.43-1.97-1.82-4.7-5.91-3.64-4.09,1.06-7.43,6.67-12.13,8.49-4.7,1.82-9.7,6.67-10.61,10.61-.91,3.94,1.52,7.12-3.79,6.52-5.31-.61-2.32-5.61-8.28-5.91-5.97-.3-9.45.15-12.48,3.79-3.03,3.64-8.79,3.03-8.94,8.34-.15,5.31.18,11.52-2.26,12.28-2.44.76-2.9,3.94-.62,4.7s7.87-.09,7.12,2.58c-.74,2.63-1.21,4.24-6.21,5.76-5,1.52-6.67,1.97-6.97,4.7-.3,2.73-.3,3.94,4.55,3.79,4.85-.15,9.55,2.3,14.4.01,4.85-2.29,4.85-8.65,14.1-9.26,9.25-.61,13.34-1.52,17.89-5.76,4.55-4.24,8.49-12.73,15.31-16.07,6.82-3.33,7.88-5.15,8.03-10.16.15-5-3.49-7.43-3.79-11.22-.3-3.79.3-4.7,5.46-4.85,5.15-.15,4.4-.76,4.4-3.79s-.45-3.03-2.73-3.03Z"/>
    <path class="st11" d="M1788.8,1291.72c-4.55-1.97-5.76,2.43-8.11,4.55-2.35,2.12-5.38,3.03-10.23,2.58-4.85-.45-12.43-.61-14.85,1.66-2.43,2.28-5.31,3.49-5,6.37.3,2.88,1.67,1.36,3.94,1.67,2.27.3,1.79-1.43,9.55-1.82,4.85-.24,8.94-1.36,11.22,1.06,2.27,2.43,3.64,1.97,8.03,1.97s.76-6.52,5.91-7.58c5.15-1.06,7.88-.76,8.03-4.55.15-3.79-3.94-3.94-8.49-5.91Z"/>
  </g>
  <g>
    <path class="st29" d="M2099.34,1208.81c-3.28,3.15,6.37,11.37,1.82,14.78s-8.09,12.51-.52,15.69,8.93-3.64,13.25-8.41c4.32-4.77-8.64-27.74-14.55-22.05Z"/>
    <path class="st29" d="M2123.44,1191.75c2.73-2.73,4.32-11.37,1.82-13.41-2.5-2.05-1.99-10.8-6.37-9.55-4.77,1.36-3.18,7.5-6.82,9.78-3.64,2.27-1.36,6.59-.91,12.52.46,5.92-2.27,7.94-2.73,12.04-.46,4.09,6.14,9.78,12.96,10.23,6.82.45,4.32-5,5.11-9.32s-5.8-9.55-3.07-12.28Z"/>
    <path class="st29" d="M1993.27,1082.55c-4.55-.45-3.64-5.46-4.77-11.82-1.14-6.37-16.82-9.09-28.42-8.89-11.6.2-16.82-9.52-24.78-9.75-7.96-.23-9.78,4.09-14.1,7.73-4.32,3.64-8.41,2.05-10.23-2.27s-20.25-2-25.69-1.59c-7.09.53-11.14-1.36-14.78.91-3.64,2.27-7.05,6.37-3.41,7.73,3.64,1.36,7.96,11.82,11.14,15.69,3.18,3.87,8.64,5.91,14.1,1.14,5.46-4.77,7.5-8.41,12.28-8.87,4.77-.45,4.77,7.96,10,7.73,5.23-.23,12.96,5,16.14,5.23s3.18-4.32,3.87-7.47c.68-3.15,19.55-2.53,20.46,0,.91,2.53,6.59,10.66,12.05,10.89s20.92,14.32,27.51,15.01c6.59.68,6.14-4.09,6.37-10.69.23-6.59-3.18-10.23-7.73-10.69Z"/>
    <path class="st29" d="M1856.86,1079.82c2.94.29,1.36-5,3.41-7.28,2.05-2.27,4.09-5.23,1.59-7.28-2.5-2.05-6.82,4.32-7.5,7.28-.68,2.96-2.05,6.82,2.5,7.28Z"/>
    <path class="st29" d="M1859.67,1093.13c-1.16.26-2.31.68-3.24,1.41-.93.73-1.64,1.82-1.71,3.01-.18,2.8,2.58,3.67,4.56,2.26.76-.54,1.15-1.54,1.98-2.1,1.16-.78,2.66-.84,3.83-1.62.95-.63,1.6-1.95,1-2.92-2.1-.5-4.31-.51-6.42-.04Z"/>
    <path class="st29" d="M1814.79,1080.95c-5.68-.23-3.18-5-6.14-10.91-2.96-5.91-14.76-4.8-21.83-5.17-13.08-.69-7.96,1.31-13.87,4.26-5.91,2.96-3.87-.23-10-.68-6.14-.45-2.27,6.37-2.5,11.38-.23,5.01,1.14,8.86,7.73,9.99,6.59,1.14,15.69,12.05,22.74,12.73,7.05.68,9.55,1.36,13.56-2.96,4.01-4.32,14.64-3.87,16.91-6.81,2.27-2.95-.91-11.6-6.59-11.83Z"/>
    <path class="st29" d="M1854.03,1320.72c-.85.25-1.84.78-1.84,1.67,0,.49.33.94.74,1.21.41.27.9.38,1.39.49,1.98.43,3.99.69,6.01.8,1.2.06,2.67-.09,3.17-1.19,1.99-4.36-7.85-3.45-9.47-2.97Z"/>
    <path class="st29" d="M1886.77,1269.74c.03.52.39.99.84,1.26.45.28.97.39,1.49.48.91.15,1.88.22,2.72-.15.84-.37,1.5-1.3,1.28-2.2-.59-2.45-6.48-2.04-6.33.6Z"/>
    <path class="st29" d="M1945.32,1303.99c-1.05-.3-2.2-.11-3.16.27-1.55.62-1.68,1.53-1.34,2.66.25.82.51,1.64.76,2.46.28.9.6,1.85,1.58,2.48,1.3.84,3.63.75,4.8-.17,1-.79,1.08-1.95.89-2.98-.29-1.55-1.11-4.04-3.53-4.72Z"/>
    <path class="st29" d="M2006.2,1320.74c-.26.72-.22,1.64.41,2.12.54.42,1.35.37,2,.11,1.03-.41,1.81-1.32,2.02-2.36.12-.6.05-1.26-.36-1.74-1.32-1.56-3.63.65-4.07,1.87Z"/>
    <path class="st29" d="M2038.52,1277.74c.68-2.16,1.14-7.62-1.82-7.62-4.43,0-3.3,2.73-3.87,5.34s-3.98,3.75-6.25,7.62c-2.27,3.86-6.82,4.77-7.39,8.3s3.98,4.21,3.64,7.05c-.34,2.84-5,3.41-7.62,5.41s-1.25,7.2,2.5,7.43,7.05-4.66,8.75-7.43c1.71-2.77,7.16-6.66,10.23-10.87,3.07-4.21,4.21-6.14,4.43-9.21.23-3.07-3.3-3.87-2.61-6.03Z"/>
    <path class="st29" d="M2028.75,1192.94c1.12.94,2.96.45,3.85-.7.89-1.15,1.02-2.73.87-4.18-.11-1.04-.36-2.1-.95-2.96-.99-1.45-3.18-2.12-4.42-.55-1,1.27-.45,3.54-.41,5.05.03,1.21.13,2.57,1.06,3.35Z"/>
  </g>
  <path class="st0" d="M1175.91,1079.14c3.59-10.44,9.94-25.69,16.74-26.66,3.04-.43,4.65-3.5,6.35-6.75.92-1.75,1.87-3.56,3.08-4.91,2.59-2.89,3.31-6.85,2.2-12.12-.32-1.5-.48-3.04.46-4.13,1-1.16,2.51-1.05,4.27-.94,1.57.1,3.53.24,6.01-.25,3.7-.71,4.29-1.61,5.48-3.41.87-1.31,1.95-2.94,4.33-4.85,3.41-2.73,3-9.45,2.63-15.37-.15-2.38-.29-4.62-.21-6.67.37-10.09,12.36-10.59,16.29-10.76,4.93-.21,7.27-2.34,7.84-7.12.43-3.67.09-7.56-8.95-11.26-10.9-4.45-11.34-14.02-11.57-19.15-.09-1.89-1.49-4.06-2.98-6.36-2.53-3.91-5.67-8.77-2.62-14.05,2.39-4.15,3.35-7.59,2.69-9.69-.3-.94-.94-1.63-1.95-2.1-1.06-.5-3.75,2.43-5.52,4.37-2.62,2.89-5.34,5.87-8.38,6.04-1.05.05-1.97-.29-2.66-1.02-1.88-1.99-1.38-6.28-.81-11.25.36-3.12.8-6.99.18-8.41-2.01-4.59-.25-9.93,4.83-14.65.82-.76,1.13-1.62.94-2.63-.38-2.07-2.97-5.06-7.92-7.08-3.38-1.37-6.96.55-11.11,2.79-3.67,1.97-7.82,4.21-12.58,4.43-4.75.2-7.71-.96-10.09-1.91-2.62-1.05-3.94-1.58-6.56.09-5.06,3.22-9.92,3.44-12.01,3.36-.57.84-1.14,1.69-1.71,2.54-4.86,7.25-8.03,11.69-11.23,12.1-.55.07-1.19.14-1.87.21-1.92.2-7.01.74-7.6,1.75.02,0,.06.25.46.75,2.09,2.66,6.86,9.41,5.99,14.7-.32,1.94-1.38,3.55-3.06,4.64l-1.33.85c-2.99,1.92-6.38,4.1-6.63,5.65-.02.14-.08.51.45,1.16l.26.33c2.7,3.34,4.19,5.18,1.04,8.52-2.22,2.36-4.27,1.36-5.91.56-.95-.47-2.04-1-3.56-1.32-1.35-.29-7.44,2.53-12.32,4.78-9.58,4.42-20.44,9.43-27.19,8.55-9.53-1.23-15.75,2.97-22.96,7.84l-1.12.76c-2.6,1.75-4.86,2.99-6.66,3.99-3.54,1.95-4.98,2.82-5.23,4.58-.69,4.94-7.74,10.83-12.57,13.17-1.59.77-3.21,2.23-4.93,3.77-3.08,2.76-6.58,5.91-10.75,5.26-2.73-.42-3.86.06-4.08.38-.15.22-.09.85.4,1.75.51.93,1.03,1.49,1.58,2.08,1.47,1.56,2.5,2.96,2.5,6.9,0,1.8-.41,3.74-.84,5.78-.92,4.39-1.88,8.94,1.03,12.58,4.74,5.96,8.08,15.11,5.28,18.7-.18.31-.31,1.68-.4,2.68-.39,4.18-1.06,11.25-8.42,15.55-.32.32-.72.63-1.27.93-3.64,1.97-5.76,2.58-5.46,5.15s.76,1.52,7.43,1.67c6.67.15,7.88-3.33,11.52-6.06s8.34-1.97,12.13-1.82c3.79.15,3.64,3.03,6.82,2.88,3.18-.15,1.97-12.73,5.46-12.88,3.49-.15,2.27,3.79,2.73,7.43.45,3.64,1.36,4.09,3.75,5.61,2.39,1.52,1.55,17.58.8,22.13-.76,4.55-2.27,5.76,3.03,5.76s4.09-4.85,7.88-8.34c3.79-3.49,10-3.18,13.94-3.18s8.64,4.4,13.64,3.33c5-1.06,6.37-4.7,9.85-4.7s5.91-6.06,6.06-10.16c.15-4.09,1.06-9.7,3.94-9.7s8.18,8.64,10.31,11.67c2.12,3.03,5.61,4.4,7.73,2.58,2.12-1.82,6.82-1.36,10.61-.15,3.79,1.21,2.12,10.61,2.27,13.64s8.79-1.67,14.25-2.58,4.7-4.85,4.85-7.73c.15-2.88,2.73-3.33,4.85-1.67,2.12,1.67,1.21,7.73,4.24,7.88.62.03,1.14-.3,1.6-.83Z"/>
  <g>
    <path class="st24" d="M943.08,962.72c-4.66.28-3.98,4.21-5.23,6.75-1.25,2.55-2.39.86-2.61,2.91-.23,2.05-.8,2.96,2.5,3.98,3.3,1.02,5.34-3.52,9.09-4.32s4.77-2.96,4.77-6.82-4.67-2.73-8.53-2.5Z"/>
    <path class="st24" d="M1170.86,842.99c-4.19.15-8.04.37-10.49.37-5,0-5.91,6.06-11.22,8.19-5.31,2.12-11.07-1.06-14.55-.76-3.49.3-12.88-4.55-18.95-4.85-6.06-.3-5.61-4.4-5.61-7.58s-13.49-1.52-23.04-1.52-12.73,2.27-12.73,5.46-.45,11.67-6.82,13.19-8.49,4.7-10.31,7.58c-1.82,2.88-14.1,3.33-20.16,2.27-6.06-1.06-13.19-3.03-17.58-2.88-4.4.15-12.28,2.58-15.76,5.91-3.49,3.33-4.85,3.18-11.52,3.18s-8.19-.15-11.52-4.85c-3.33-4.7-3.64-3.03-8.79-7.43-5.15-4.4-5.31-7.43-13.94-12.13-8.64-4.7-15.61-16.37-17.28-22.28-1.67-5.91-2.88-8.18-6.21-7.58-3.33.61-2.43,3.49-2.73,6.97-.3,3.49-2.43,2.88-4.55,7.12-2.12,4.24-5.46,6.06-8.94,9.55s-3.64,5.15-1.21,7.73c2.43,2.58,6.06-6.21,9.09-5.91,3.03.3.3,3.33-.91,6.97-1.21,3.64-7.58,5.31-10.46,6.06-2.88.76-1.36,4.09-.61,7.88.76,3.79-1.06,4.85-2.89,7.12s-.9,3.33,0,7.58c.9,4.24.16,11.07,0,13.95-.15,2.88,1.97,4.55,5.76,4.55s5,8.19,8.34,10c3.33,1.82,5.46,4.55,3.03,6.37-2.43,1.82-3.49,1.97-2.58,5.76.91,3.79,1.36,7.58-.91,6.06-2.27-1.52-7.12-.76-5,2.12,2.12,2.88,1.06,6.52,1.67,11.67.61,5.15,10.16,2.88,14.4,3.49,4.24.61,6.52,4.85,5.46,7.43-1.06,2.58-3.49-.76-7.43-1.82-3.94-1.06-4.09,2.12-4.55,4.4-.45,2.27,2.73,2.88,5.31,1.82,2.58-1.06,7.43,2.88,10.91,2.73,3.49-.15,7.88,1.21,8.34,4.7.45,3.49,6.82,9.55,11.22,13.19,4.4,3.64,1.97,17.58,1.52,20.61-.45,3.03-5.76,5.15-6.06,8.19-.3,3.03,5.31,5,8.94,6.82,3.64,1.82,2.58,13.94,2.27,17.89-.3,3.94,1.67,7.12,4.09,8.34,2.43,1.21,3.64,3.18,1.06,5.46-2.58,2.27-.61,5.46-1.52,9.7-.91,4.24-1.36,8.49,2.73,9.4s5.31-5.61,11.52-6.21c6.21-.61,4.55,10.46,7.88,10.76,3.33.3,2.88-2.27,3.49-5.91.61-3.64,7.12-4.85,9.85-5,.39-.02.75.03,1.09.11,5.18-3.48,5.68-8.72,6.02-12.5.18-1.99.32-3.43,1.09-4.42,1.1-1.42-.33-8.38-5.26-14.57-3.88-4.88-2.66-10.69-1.68-15.35.39-1.87.77-3.65.77-5.1,0-2.91-.57-3.52-1.59-4.61-.61-.65-1.37-1.46-2.08-2.77-1.48-2.73-.76-4.47-.19-5.27.84-1.18,2.78-2.46,7.32-1.75,2.62.4,5.24-1.95,8.01-4.44,1.81-1.62,3.69-3.3,5.7-4.28,4.49-2.18,10.27-7.41,10.72-10.62.48-3.49,3.19-4.98,6.92-7.05,1.75-.97,3.93-2.17,6.41-3.84l1.12-.75c7.45-5.03,14.48-9.8,25.26-8.39,5.79.72,16.65-4.25,25.36-8.27,7.88-3.64,12.12-5.5,14.42-5.02,1.93.41,3.32,1.09,4.34,1.59q1.47.72,2,.15,1.15-1.22-1.2-4.13l-.27-.33c-.97-1.2-1.36-2.48-1.14-3.8.49-3.02,4.03-5.3,8.12-7.93l1.31-.85c.91-.59,1.42-1.35,1.59-2.39.54-3.26-2.39-8.38-5.32-12.09-1.43-1.81-1.28-3.24-.91-4.12,1.1-2.61,5.15-3.23,10.33-3.78.65-.07,1.26-.13,1.8-.2,1.92-.25,6.1-6.5,8.87-10.64,2.31-3.45,4.49-6.71,6.48-8.81,3.03-3.19,1.75-5.61-.71-9.21-.44-.64-.85-1.25-1.19-1.83-2.18-3.74,4.24-7.91,12.86-12.96,1.43-.84,2.62-1.54,3.3-2,.87-.63.92-4.7.27-9.59Z"/>
  </g>
  <g>
    <path class="st18" d="M1273.21,1087.55c-.68-4.32,2.67-11.3,0-10.69-2.96.68-4.09,5.68-6.59,9.55-2.5,3.87-2.05,4.55-2.73,9.55-.68,5,2.27,5,2.5,11.82.23,6.82,2.05,4.09,6.73,1.59,4.68-2.5,3.28-7.73,3.05-12.5-.23-4.77-2.27-5-2.96-9.32Z"/>
    <path class="st18" d="M1279.81,1087.68c-.68.21-.87,1.31-.88,1.91,0,.34.07.71.34.9.25.17.61.13.87-.04.26-.17.43-.43.58-.71.16-.29.29-.61.32-.94.05-.65-.53-1.34-1.23-1.12Z"/>
    <path class="st18" d="M1269.93,1030.28c-3.15-.46-5.81.55-8.15,1.43-1.35.51-2.87,1.08-4.28,1.08s-2.79-.6-3.73-2.49c-1.1-2.19-1.35-4.9-1.6-7.53-.29-3.05-.59-6.2-2.21-8-2.12-2.34-2.06-5.57-2.01-8.7.05-3.1.1-6.03-1.72-8.16-3.38-3.97-9-9.05-10.96-10.8-3.05,1.22-4.56,3.19-4.67,6.08-.07,1.88.06,4.05.21,6.34.41,6.74.88,14.38-3.88,18.19-1.97,1.57-2.85,2.91-3.63,4.08-1.59,2.41-2.9,3.94-7.64,4.85-2.91.56-5.19.41-6.86.3-.48-.03-1.03-.05-1.42-.06.01.23.06.57.17,1.11,1.35,6.38.37,11.31-2.98,15.04-.94,1.04-1.75,2.59-2.61,4.23-1.93,3.67-4.11,7.83-8.84,8.5-2.89.41-6.99,6.69-10.99,16.34.62,1.29-1.94,5.01-2.67,7.09-.91,2.58,1.06,4.24,4.55,4.7,3.49.45,4.55-6.97,7.12-6.82,2.58.15,1.82,2.43-.15,5.15-1.97,2.73-.76,8.03,1.52,9.4,2.27,1.36,1.82,3.49,1.97,11.82.15,8.34-2.12,16.22.91,16.67,3.03.45,5.91-2.27,10-4.7,4.09-2.43,10.46-9.09,22.43-11.67,11.97-2.58,23.49-10.16,27.89-11.97,4.4-1.82,4.24-2.58,5.15-7.43.91-4.85,4.4-8.64,7.58-10.91,3.18-2.27,2.88-3.94,2.27-6.37-.61-2.43-4.4-1.82-4.55-5.31-.15-3.49.61-8.94,3.33-8.94s2.43,5.91,5.91,6.37c3.49.45,4.09-6.37,4.09-10.31s-1.97-2.73-3.18-6.06c-1.21-3.33-.3-6.06,2.88-6.37,3.18-.3,8.79.15,8.79-3.64,0-.57.1-1.09.24-1.6-5.42-.05-13.43-.24-18.31-.95Z"/>
  </g>
  <g>
    <path class="st9" d="M1960.71,1001.95c-2.83.35-5.81.62-8.16,2.23-2.35,1.61-3.69,5.11-1.98,7.39,1.24,1.66,3.52,2.07,5.57,2.35,2.84.39,5.68.78,8.51,1.17,2.04.28,4.12.56,6.16.29,3.08-.41,6.03-2.19,7.54-4.91,1.51-2.72,1.41-6.34-.51-8.79-4.5-5.75-11.75-.4-17.14.26Z"/>
    <path class="st9" d="M2009.35,958.08c-3.43-1.77-11.67,1.32-15.41,1.91-1.37.22-3.04.72-3.26,2.09-.24,1.46,1.37,2.45,2.33,3.57,1.73,2.01,1.52,4.97,1.51,7.62,0,2.65.61,5.79,3.05,6.85,2.34,1.02,5.07-.59,6.55-2.67,1.47-2.08,2.18-4.63,3.58-6.76,1.61-2.46,4.18-4.54,4.46-7.47.2-2.06-.96-4.19-2.8-5.13Z"/>
    <path class="st9" d="M1997.52,922.43c3.64.25,10.91,9.15,14.66,7.33s8.98,3.94,11.41,0c2.42-3.94-.91-8.49-5.15-8.79-4.24-.3-10.64-7.92-17.42-7.28-9.54.91-7.13,8.49-3.5,8.74Z"/>
    <path class="st9" d="M1987.27,919.5c-1.75-1.45-4.54-2.24-6.17-.66-1.17,1.13-1.18,3.08-.46,4.54.72,1.46,2.03,2.52,3.34,3.5,1.21.9,2.48,1.78,3.95,2.15,1.46.37,3.16.13,4.21-.95,2.91-3.02-2.9-6.96-4.86-8.57Z"/>
    <path class="st9" d="M1995.2,933.03c.15,1.51,2.57,2.53,4.21,1.78,1.83-.84,1.91-3.22-.41-4.07-1.77-.53-3.95.78-3.8,2.29Z"/>
    <path class="st9" d="M2217.42,1102.28c-2.09-5.53-20.33-9.86-34.98-13.34l-5.04-1.2c-6.82-1.65-10.14-3.67-10.78-6.55-.81-3.65,3.15-6.82,6.99-9.88,2.13-1.7,4.33-3.46,5.04-4.82,1.87-3.61,8.09-8.92,13.24-12.92-1.86-6.82-5.49-15.4-7.63-14.98-3.03.61-.61,17.89-5.15,16.67-4.55-1.21-5.46-15.76-10.61-22.13-5.15-6.37-4.55-9.09-5.76-21.83-1.21-12.73,2.43-17.28,5.15-24.25,2.73-6.97-1.21-13.34-6.06-18.49-4.85-5.15,1.21-12.13-.91-15.76-2.12-3.64-18.19-2.12-28.8-2.43-10.61-.3-23.65-18.8-41.53-19.1-17.89-.3-23.34,2.73-30.92,9.7-7.58,6.97-14.85,9.7-24.56,10.31-9.7.61-10.91,1.21-12.43,12.13-1.52,10.91-8.79,7.88-11.82,13.04-3.03,5.15,0,9.4,6.06,7.58,6.06-1.82,8.79-3.64,11.52,0,2.73,3.64,16.37,5.15,23.95,5.46,7.58.3,7.28,7.58,3.64,12.73-3.64,5.15,4.55,7.58,7.88,13.04s10.61,10.31,17.58,8.18c6.97-2.12,13.64,2.73,20.92,2.43,7.28-.3,15.46-5.76,21.83-4.55s17.89-1.52,25.77-3.64c7.88-2.12,6.37,7.58,7.28,12.13.91,4.55-3.03,7.28-6.97,9.7-3.94,2.43-5.15,8.79-7.58,10.61-2.43,1.82-2.43-9.4-6.06-9.09-3.64.3-5.46,6.37-9.7,5.76-4.24-.61-2.73-12.43-10.61-12.13-7.88.3-13.95,11.82-18.8,16.98-4.85,5.15-8.49-1.21-13.94-3.64-5.46-2.43-20.61-2.73-22.43,2.73-1.82,5.46,5.15,7.28,13.34,7.88,8.18.61,10.61,20.31,16.98,17.89,6.37-2.43,7.28.3,5.9,4.55-1.38,4.24,7.74,7.88,5.01,13.04-2.73,5.15-5.76,2.43-4.85,10.31.91,7.88,10.31,11.52,15.46,11.22,5.15-.3,9.7-.61,11.82-9.7,2.12-9.09,7.28-6.67,10.61-12.13,3.33-5.46-4.55-6.67-4.55-10.31s7.58-5.15,8.49-12.13c.91-6.97,5.76-9.7,7.58-12.13,1.82-2.43,4.85-2.12,6.06,2.73,1.21,4.85,1.82,6.67-1.82,7.58-3.64.91-6.67,6.06-8.79,11.52-2.12,5.46.61,10.91,6.06,10.91s6.97,9.7,11.22,9.09c4.24-.61,4.85-1.52,5.46,3.33.61,4.85,7.28,3.03,10,1.52,2.73-1.52,6.97,6.97,11.52,3.33,4.55-3.64,20.01-3.33,20.01-1.21s-.3,3.94-5.76,2.73c-5.46-1.21-7.88,1.52-7.58,6.97.13,2.28,2.65,4.93,6.08,7.33,5.97-6.12,13.48-14.16,17.28-19.57,1.11-1.58.93-2.59.7-3.2Z"/>
  </g>
  <g>
    <path class="st17" d="M2401.77,1287.78c-4.4-6.06-13.49-7.16-17.89-6.97-31.53,1.36-38.35,37.14-42.44,43.65-4.09,6.52-1.21,10.61,3.18,7.73,4.4-2.88,21.83.91,31.38,0,9.55-.91,23.04-21.68,29.1-30.47,6.06-8.79,1.06-7.88-3.33-13.94Z"/>
    <path class="st17" d="M2256.57,995.69c-5.67,0-8.2.23-8.65,3.41-.45,3.18,12.96,5.46,17.05,6.82,4.09,1.36,11.82,3.41,16.37,1.36s12.73-2.05,13.19-5.91c.45-3.86-13.62-3.03-20.92-3.41-4.33-.23-11.37-2.27-17.04-2.27Z"/>
    <path class="st17" d="M2244.28,954.77c5.68-.23,4.32,8.41,4.55,12.51.23,4.09,10.23,5.91,14.55,5.23,4.32-.68,10.46-1.83,10.23-5.23-.23-3.41-3.64-1.59-7.5-1.82-3.87-.23-6.59-6.14-7.5-10.46s-7.05-7.5-10.7-5.68c-3.65,1.82-5.44,0-8.17-1.59-2.73-1.59-7.28.23-7.73,3.41-.45,3.18,6.59,3.86,12.28,3.64Z"/>
    <path class="st17" d="M2503.48,1044.05c-12.43.91-16.37-8.49-22.43-7.58-6.06.91-24.25-6.06-32.44-4.85-8.18,1.21-33.65-20.31-43.05-20.01-9.4.3-17.28-10.31-30.92-13.34-13.64-3.03-17.58-11.82-24.56-12.13-6.97-.3-13.04,3.03-21.83,9.4-8.79,6.37-16.07,7.58-12.73,12.13,3.33,4.55.91,7.28-8.49,13.34-9.4,6.06-22.74.61-30.01,3.03-7.28,2.43-6.06,20.01-15.16,22.43-9.09,2.43-9.4,11.52-13.34,16.37-3.94,4.85-17.28,16.07-23.04,17.28-5.76,1.21-19.4.91-26.07-7.58-6.67-8.49-6.67-7.28-6.37-12.13.05-.78-.08-1.92-.33-3.24-4.77,3.79-9.72,8.16-11.12,10.85-1.03,1.98-3.4,3.88-5.92,5.89-2.6,2.08-6.17,4.93-5.81,6.54.11.5,1.04,2.27,8.3,4.02l5.03,1.2c17.8,4.23,34.61,8.23,37.33,15.41.54,1.41.78,3.66-1.09,6.31-3.86,5.49-11.18,13.36-17.13,19.48,4.31,2.51,9.28,4.5,12.86,5.08,7.58,1.21,28.19,3.33,36.07,3.33s14.25,10,20.92,9.7c6.67-.3,13.34,8.19,23.04,10.31,9.7,2.12,20.92,4.24,27.89,7.88,6.97,3.64,30.32,18.49,36.38,20.01,6.06,1.52,4.85,14.85,11.22,18.8,6.37,3.94,3.64,10.61,3.94,19.4.3,8.79,11.52,20.01,20.01,24.25,8.49,4.24,24.56,12.43,23.95,15.46-.61,3.03-5.46,2.12-10.91-2.12-5.46-4.24-11.82-2.73-16.67-1.21-4.85,1.52,3.03,7.58,10,10.31,6.97,2.73,21.83-.61,16.37,5.15s-20.01-3.03-20.01,1.52,4.55,9.7,11.22,12.73,2.73,11.52-.61,17.58c-3.33,6.06-11.82,18.19-5.76,20.31,6.06,2.12,10.31-18.19,15.16-18.49,4.85-.3.3,13.64,6.06,14.85,5.76,1.21,16.07-5.15,24.56-5.15s12.13-16.07,16.37-10.61c4.24,5.46-8.18,11.22-8.18,15.46s19.1,15.46,24.86,21.52c5.76,6.06,22.43,23.04,22.43,23.04v-105.19c-1.52-4.24-4.55-2.73-5.76-13.94-1.21-11.22,5.76-20.31,5.76-20.31v-182.5Z"/>
  </g>
  <path class="st6" d="M1432.68,1079.36c-.25-1.02-.5-2.08-.68-3.14-.9-5.2,2.8-6.05,5.49-6.67,1.24-.29,2.52-.58,3.7-1.19.25-.13.28-.23.29-.29.32-1.12-1.46-4.1-2.76-6.28-1.38-2.32-2.81-4.72-3.21-6.79-.35-1.84-.09-3.22.79-4.21,1.5-1.67,4.01-1.47,6.93-1.25.73.06,1.49.12,2.26.15.18.05.29-.03.42-.16,1.53-1.55,1.17-8.38.97-12.05-.07-1.36-.13-2.57-.13-3.49,0-1.28-.17-1.34-1.51-1.79-1.44-.49-3.61-1.22-4.68-4.32-1.7-4.91,3.36-8.56,7.81-11.78,1.15-.83,2.27-1.64,3.23-2.44,1.62-1.35,2.5-3.65,2.36-6.15-.16-2.79-1.53-5.29-3.68-6.7-4.52-2.96-4.73-4.82-4.78-8.73-.01-1.17-.03-2.61-.21-4.45-.35-3.42-2.59-4.36-6.25-5.5-1.93-.61-3.76-1.18-4.86-2.55-1.84-2.31.48-4.51,2.35-6.29,2.91-2.76,4.69-4.78,2.91-7.52-1-1.55-1.77-3.56-2.38-5.76-1.59,3.88-4.17,9.16-7.65,11.36-4.32,2.73-1.59,14.78-2.5,22.74-.91,7.96,4.32,9.55,3.64,12.28-.68,2.73.45,4.32-4.55,4.55-5,.23-2.5,4.55-4.77,8.18-2.27,3.64-2.96,10-2.73,16.14.23,6.14-6.82,8.19-13.41,8.87-6.59.68-4.55,3.87-4.55,7.5s7.05,6.37,4.55,10.69c-2.5,4.32-2.05,5.91-2.5,13.19-.45,7.28,4.55,12.51,9.32,12.73,4.77.23,7.73-4.32,17.27-4.32,1.72,0,3.11.26,4.23.68.13-1.41-.22-3.09-.73-5.23Z"/>
  <path class="st19" d="M1571.62,862.8c-3.16,2.81-7.62,5.45-13.03,5.02-4.13-.3-5.09.69-6.38,2.07-1.56,1.67-3.5,3.74-9.67,3.85-3.55.06-6.2-.24-8.32-.48-4.36-.49-5.54-.63-8.12,2.78l-.68.9c-1.67,2.18-2.54,3.36-2.37,4.41.29,1.85,3.82,4.71,8.06,7.72,3.72-1.24,6.34-3.76,10.17-4.09,5.23-.45,8.64,5.46,15.01,5.68,6.37.23,13.19-2.05,19.1-3.64,5.91-1.59,24.1,1.82,33.2.45,9.09-1.36,9.78.68,12.51,6.37,1.58,3.29,7.89,4.59,14.73,4.54-.19-8.71-5.77-13.94-10.83-18.66-1.3-1.21-2.55-2.37-3.65-3.54-2.65-2.79-4.16-6.29-5.01-9.6-6.81.15-6.89,6.57-12.29,7.02-5.46.45-5.68-2.27-11.37-6.37-5.68-4.09-11.6-4.32-18.42-4.32-.86,0-1.74-.04-2.62-.11Z"/>
  <g>
    <path class="st16" d="M1484.07,1202.84c-.55,1.23-.55,2.59-.62,4.05-.24,4.85-.29,9.72-.13,14.58.04,1.26.2,2.75.91,3.26.58.41,1.28-.08,1.67-.88.39-.8.53-1.83.64-2.83.64-5.96.49-12.13-.45-17.99-.36-2.22-1.34-1.72-2.02-.19Z"/>
    <path class="st16" d="M1545.78,1044.7c-5.35-2.87-6.68-4.53-10.24-8.98l-.26-.32c-3.08-3.85-10.84-5.65-25.15-5.84-12.31-.16-16.51-7.39-19.89-13.2-.77-1.32-1.52-2.61-2.34-3.78-3.8-5.39-4.38-5.11-8.1-3.41-3.82,1.76-7.54.66-11.16-.4-1.05-.31-2.12-.62-3.22-.88-2.98-.69-6.65,1.21-8.33,2.33-.45,2.4-1.6,4.55-3.35,6.01-1.02.85-2.2,1.71-3.42,2.58-3.51,2.54-7.49,5.41-6.61,7.97.54,1.55,1.35,1.83,2.59,2.25,1.51.51,3.78,1.28,3.78,4.95,0,.88.06,2.03.13,3.32.35,6.55.44,12.17-1.93,14.57-.79.8-1.8,1.17-2.93,1.16-.82-.03-1.62-.09-2.39-.16-1.42-.11-3.79-.3-4.18.14-.06.07-.18.44,0,1.35.29,1.5,1.56,3.64,2.8,5.71,1.96,3.29,3.81,6.4,3.1,8.9-.28,1.01-.96,1.82-1.96,2.34-1.55.81-3.12,1.17-4.49,1.49-2.93.68-3.3.84-2.95,2.85.17.99.41,1.96.64,2.92.64,2.65,1.32,5.52.44,8.18,1.84,2.51,1.24,6.05-.13,7.84-2.27,2.96-.91,6.59,3.87,11.82s2.27,19.78,2.27,28.65-5.68,15.92-6.14,24.55c-.45,8.64-6.82,14.1-7.05,20.01-.23,5.91,2.96,7.5,7.73,8.41,4.77.91,6.37,7.96,12.28,8.18,5.91.23,5.68-5.91,10.34-7.73,4.65-1.82,11.26.68,17.17,0,5.91-.68,5.91-4.77,1.82-9.78-4.09-5-4.55-19.33-1.59-22.74,2.96-3.41,5-9.55,2.96-15.23-2.05-5.68-.91-19.1-2.27-22.28-1.36-3.18.45-13.41,3.18-16.37,2.73-2.96-.46-12.05,0-16.82.45-4.77,0-10.23-2.96-13.41-2.96-3.18-6.82-6.14-7.28-10.46-.45-4.32,3.64-4.55,7.73-5.68s10.69-8.64,15.23-11.37c4.55-2.73,11.82-1.14,17.73-.45,3.09.36,4.12,4.62,4.35,9.45,3.17,0,6.63.54,8.93,2.46.86.72,1.7,1.51,2.54,2.3,3.71,3.48,6.24,5.55,10.21,4.19,1.12-1.34,5.01-5.82,10.34-9.7,1.29-.94,2.81-2.32,2.72-3.61-.05-.71-.71-2.23-4.56-4.29Z"/>
  </g>
  <g>
    <path class="st4" d="M1612.82,1112.25c-2.58-.3-3.94.61-4.09,3.03-.15,2.42,3.64,2.27,3.79,3.79.15,1.52-1.52,3.64,2.12,4.09,2.56.32,3.03-4.09,4.85-4.24,1.82-.15,1.67-2.12,1.52-5.31s-5.61-1.06-8.18-1.36Z"/>
    <path class="st4" d="M1561.74,1172.88c.15-3.79-5.61-7.73-5.61-5.15,0,3.79-2.58,4.7-2.73,6.97-.15,2.27,1.21,3.64,3.49,5.15s0,2.73,3.15,3.33,1.55-6.52,1.7-10.31Z"/>
    <path class="st4" d="M1594.33,1161.67c3.49-2.43,2.73-5.15,2.12-9.55-.61-4.4-.5-7.87-4.24-7.28-3.79.61-3.94,2.73-5.31,4.85-1.36,2.12-6.67,1.21-7.43,3.94-.76,2.73.45,6.21,1.06,9.29.61,3.07-1.97,7.23-2.27,10.72-.3,3.49-4.7,5-2.27,6.97,2.42,1.97,5-4.24,6.52-4.55,1.52-.3,3.49,2.43,6.82,2.12,3.33-.3-.45-5.31-1.21-7.88-.76-2.58,2.73-6.21,6.21-8.64Z"/>
    <path class="st4" d="M1638.86,1175.57c-.6.74-.59,2.71-.53,3.58.04.62.25,1.35.85,1.53.35.1.73-.02,1.01-.26.28-.23.46-.56.61-.88.37-.82.56-1.73.55-2.64-.02-1.26-1.33-2.75-2.47-1.34Z"/>
    <path class="st4" d="M1610.55,1150.45c.61-2.43,2.73-2.73,5.91-2.88,3.18-.15,2.88-1.82,2.88-4.55s-1.82-2.73-3.18-5.15c-1.36-2.43-3.07-3.95-5.61-3.49-3.33.61-5,2.58-5.01,6.52,0,3.94-1.06,9.25-2.57,12.28-1.52,3.03-1.36,12.58-1.21,16.07.15,3.49,1.21,6.06-1.97,7.12-3.18,1.06-3.94,6.06-6.37,8.34-2.43,2.27-1.52,5.31-1.52,7.73s7.12.15,9.7,0c2.58-.15.3-6.21,2.27-9.21,1.97-3,10.46-2.46,13.34-2.5,2.88-.04,1.21-3.14.61-5.66s-6.52-1.88-9.1-2.03c-2.58-.15-1.66-10.16-1.51-13.19s2.73-6.97,3.33-9.4Z"/>
    <path class="st4" d="M1562.65,1138.7c1.14-3.64,11.82-5.46,17.51-5.91,5.68-.45,9.09-3.64,13.19-4.78s1.82,4.55,7.28,4.77c5.46.23,4.32-7.05,3.41-11.6s-4.09-4.09-8.41-4.09-7.28-5.68-7.5-9.78c-.23-4.09-3.41-5.23-9.09-7.28-5.68-2.05-12.51-7.73-9.78-9.09,2.73-1.36,3.87-4.32,2.73-7.5-1.05-2.93,1.95-6.79,4.92-8.28-2.14-2.34-5-2.98-8.57-3.72-3.82-.79-8.15-1.69-12.48-4.97-2.76-2.1-10.75-3.59-16.98-1.18-6.38,2.48-10.47-1.37-14.08-4.77-.78-.74-1.57-1.48-2.39-2.16-1.52-1.27-4.15-1.66-6.75-1.67-.06,3.38-.36,6.67-.53,8.79-.45,5.91-1.36,8.87-5.91,12.51-4.55,3.64-3.18,6.82-2.96,10.69.23,3.87,12.51,11.82,15.69,12.28,3.18.45,7.05,9.55,12.5,9.78,5.46.23,8.19,3.87,8.41,7.96.23,4.09-.91,5.46-3.41,8.64-2.5,3.18-2.5,11.37-2.5,15.92s4.55,7.5,8.64,7.5,10.46,4.09,16.14,4.09,2.73-3.64.23-6.82c-2.5-3.18-.45-5.68.68-9.32Z"/>
  </g>
  <path class="st1" d="M1714.53,830.85c-6.59,0-8.41,1.14-11.6,7.5s-10,5-13.41,5.68c-3.41.68,1.59,2.96,1.36,7.73-.23,4.77-2.05,2.5-7.28,2.96-5.23.45-5.23.68-6.14,5.23s-6.59,4.09-11.82,7.5-9.12,4.37-17.05,5c-5.61.45-9.55-.45-14.32-2.05-4-1.33-8.82-3.13-14.42-3.68.76,2.54,1.98,5.1,3.91,7.14,1.06,1.12,2.26,2.23,3.5,3.39,5.35,4.99,11.72,10.96,11.91,20.97,3.89-.27,7.74-.94,10.78-1.9,9.32-2.96,18.42-2.05,26.83-4.09,8.41-2.05,10.91-11.14,13.19-18.42,2.27-7.28,14.32-12.73,19.55-18.64,5.23-5.91,3.41-10.46,7.5-13.87,4.09-3.41,4.09-10.46-2.5-10.46Z"/>
  <g>
    <path class="st13" d="M1609.6,972.39c-3.75.1-5,2.16-6.37,4.89-1.36,2.73-1.36,2.96-1.25,6.37.11,3.41-.45,6.14,3.52,6.37,3.98.23,6.25-8.98,8.98-11.25,2.73-2.27,5-1.71,4.89-4.43-.11-2.73-7.16-2-9.78-1.93Z"/>
    <path class="st13" d="M1628.97,976.52c-2.83,2.25-5.9,7.8-1.59,10.37,1.92,1.15,4.49.45,6.23-.96,1.39-1.13,2.45-2.73,2.7-4.5.56-3.94-3.93-7.61-7.34-4.91Z"/>
    <path class="st13" d="M1637.71,991.88c-2.3-.82-2.61,1.98-2.81,3.5-.1.8.03,1.67.53,2.3.51.63,1.43.95,2.16.6.47-.23.79-.68,1.05-1.14.49-.89.84-1.89.74-2.9-.1-1.01-.72-2.01-1.67-2.35Z"/>
    <path class="st13" d="M1556.64,930.27c-.59.26-1.25.58-1.43,1.2-.12.42.02.87.28,1.22.26.34.63.59,1.02.79.87.46,1.86.73,2.84.63.98-.09,1.94-.58,2.48-1.4.54-.82.61-1.97.04-2.78-1.26-1.82-3.76-.3-5.23.34Z"/>
    <path class="st13" d="M1628.13,957.27c0-2.5,3.87-2.96,3.64-8.18-.23-5.23-5.23-8.41-13.19-8.41s-12.73,1.36-15.01,4.09c-2.27,2.73,4.55,6.14,1.36,7.73-3.18,1.59-12.28-2.05-15.25-1.82-2.98.23-16.35-1.59-20.67,1.82-4.32,3.41-3.18,7.05-8.64,7.05s-16.14.91-16.14-1.36-1.14-4.32-4.09-3.86c-2.96.45-5,0-6.14,3.86-1.14,3.87-6.59,9.55-11.37,13.87-4.77,4.32-3.41,8.87-5.46,11.37-2.05,2.5-13.64-1.14-22.51-1.36-8.87-.23-5-9.09-5.23-13.19-.23-4.09-1.59-7.73-6.82-8.41-5.23-.68-10.23-1.59-11.82-5.68-1.59-4.09-7.96-6.14-8.41-15.46-.45-9.32-5-13.41-1.59-19.78,3.41-6.37,4.77-16.6,10.91-25.69,6.14-9.09,16.37-7.05,21.83-7.5,5.46-.45,13.19,3.18,16.82,4.55,3.62,1.36,9.48-1.33,16.03-1.14-4.53-3.46-6.28-5.63-6.64-7.87-.4-2.52,1.1-4.49,3.01-6.98l.67-.88c3.73-4.93,6.53-4.61,11.16-4.08,2.02.23,4.53.52,7.89.46,4.76-.08,5.99-1.4,7.29-2.79,1.89-2.01,3.76-3.53,9.07-3.12,3.04.21,5.76-.85,8.04-2.33-4.44-.79-8.56-1.99-11.06-2.43-3.87-.68-10.46,1.36-16.37,1.36s-6.59-8.87-13.41-8.87-10.23-6.14-17.28-6.37c-7.05-.23-6.82,4.77-6.82,10.46s-1.14,7.05-4.55,8.41c-3.41,1.36-3.41,5.23-5.68,7.96-2.27,2.73-8.87,1.59-12.28.45-3.41-1.14-3.18-7.73-5.91-6.59-2.73,1.14,0,7.5-5.68,9.09-5.68,1.59-4.77,4.32-4.77,9.55s-5.46,4.09-8.41,9.09c-2.96,5-2.27,10.46.46,12.51,2.73,2.05,0,8.64-2.73,14.1-2.73,5.46-2.5,11.37-2.5,17.28s5.23,10.69,5.23,14.78-2.73,5-5,4.77c-2.27-.23-1.14-7.28-4.32-7.05-2.4.17-4.8,1.9-6.42,4.29.59,3.48,1.49,6.82,2.89,8.98,3.42,5.27-.86,9.34-3.42,11.76-.63.6-1.55,1.47-1.86,1.96.58.49,1.84.88,3.06,1.27,3.18,1,7.98,2.5,8.57,8.36.2,1.96.22,3.49.23,4.75.04,3.27.05,3.87,3.27,5.98,2.76,1.81,4.55,4.89,5.02,8.33,2.27-1.18,5.71-2.48,9.04-1.72,1.17.27,2.3.6,3.41.93,3.3.97,6.14,1.81,8.82.58,5.3-2.43,7.54-2.13,12.23,4.52.88,1.24,1.68,2.61,2.5,4.02,3.26,5.6,6.63,11.4,17.05,11.54,15.82.21,23.85,2.27,27.72,7.1l.26.32c3.42,4.28,4.46,5.58,9.2,8.12,4.07,2.18,6.14,4.47,6.31,7,.16,2.26-1.22,4.45-4.09,6.54-2.55,1.86-4.75,3.87-6.45,5.58,5.79-.65,11.78.7,14.72,2.93,3.73,2.82,7.5,3.61,11.14,4.36,3.92.82,7.94,1.67,10.87,5.31,1.76-1.56,2.35-3.81-.17-4.82-3.41-1.36-5-4.77-5.23-8.87-.23-4.09-3.41-7.5-8.64-7.73-5.23-.23-5.23-9.32-7.96-16.37-2.73-7.05-12.5-12.96-16.82-13.64-4.32-.68-5-9.09-8.87-8.87s-6.82-5.68-6.82-9.09.45-2.73,5-2.27c4.55.45,8.64,5.46,14.32,5,5.68-.45,3.87-11.14,9.55-11.6,5.68-.45,16.14-3.87,23.65-7.96,7.5-4.09,16.14-19.33,19.55-24.78,3.41-5.46,7.28-6.14,15.46-7.5,8.19-1.36,7.28,8.18,10.91,8.18s4.32-3.41,4.32-5.91Z"/>
  </g>
  <g>
    <path class="st25" d="M279.64,785.38c-6.14-1.36-7.39-3.3-9.78-8.64-2.39-5.34-11.41-9.91-13.98-6.03-5.12,7.73,8.3,11.82,13.3,11.82s9.32,6.93,12.39,8.53c3.07,1.59,7.96,5.57,8.87,1.36.91-4.21-4.66-5.68-10.8-7.05Z"/>
    <path class="st25" d="M367.47,778.85c.46-3.66-.69-5.61-5.81-10.15-4.23-3.76-3.21-10.73,3.03-20.71,1.39-2.22.18-3.97-3.63-8.38-1-1.16-2.1-2.43-3.2-3.84-2.77-3.53-3.79-6.59-3.13-9.33.67-2.79,3.07-5.11,7.33-7.08,4.38-2.03,4.55-6.58,4.72-11.4.07-1.81.13-3.69.45-5.4.84-4.64,6.83-5.85,11.61-6.06-.69-4.88-4.5-8.48-9.63-9.1-5.68-.68-3.87-3.87-4.09-10-.23-6.14-6.59-10.69-11.37-12.96-4.77-2.27-5.91-9.78-9.55-10.89-3.64-1.11-5.68.66-10,2.25-4.32,1.59-8.87.45-11.37-2.05-2.5-2.5-6.14-3.18-13.64-3.18s-8.64,3.4-17.73,3.18c-19.33-.45-21.37-4.55-30.24-12.05s-29.33-11.37-30.92-4.55c-1.59,6.82,3.18,17.28,5,25.69,1.82,8.41,16.82,23.87,21.37,27.51,4.55,3.64,9.09,12.96,15.69,14.55,6.59,1.59,8.64,6.59,14.55,15.01,5.91,8.41,8.64,5,17.51,5s17.28,17.28,17.73,20.92c.45,3.64,9.78,5,10,10.91.23,5.91,5.91,12.28,13.41,12.28s5.23,15.92,5.23,24.78,8.41,6.14,14.1,6.37c1.49.06,3.43.96,5.58,2.24.57-4.31-.08-8.34-1.47-10.46-2.66-4.05-2.09-8.65-1.53-13.08Z"/>
  </g>
  <g>
    <path class="st12" d="M355.8,858.37c-7.73-4.24-12.13-14.25-14.55-17.13-2.43-2.88-4.08-3.39-8.94,0-6.52,4.55-3.64,11.67,1.36,15.01,5,3.33,5.91,11.52,12.88,14.1,6.97,2.58,3.33,13.64,6.67,14.1,3.33.45,5.31.91,5.61-4.85.3-5.76,3.49-4.85,3.79-10.91.3-6.06.91-6.06-6.82-10.31Z"/>
    <path class="st12" d="M483.63,824.11c-3.95-3.76-3.64-8.45-3.36-12.58.19-2.84.37-5.52-.64-7.95-1.83-4.4-.24-12.86,1.37-19.06-1.35-2.74-3.23-4.91-5.38-5.51-4.09-1.14-2.96,7.73-8.19,5.68-5.23-2.05-2.96-12.96-2.96-17.73s-39.33-30.69-52.75-36.61c-13.41-5.91-15.46-13.64-21.37-18.64-5.91-5-9.32,1.14-13.41-2.27-3.63-3.03.79-5.17,1.83-9.59-3.89.2-7.84,1.05-8.25,3.29-.27,1.48-.33,3.15-.39,4.93-.18,5.09-.41,11.43-6.66,14.32-3.27,1.51-5.07,3.09-5.49,4.83-.4,1.66.44,3.85,2.51,6.49,1.07,1.37,2.13,2.59,3.1,3.72,3.62,4.2,6.76,7.83,3.93,12.34-6.54,10.46-5.59,14.71-3.64,16.44,5.31,4.72,7.58,7.69,6.93,12.82-.55,4.43-1.01,8.05.98,11.08,1.94,2.95,2.9,8.45,1.77,14.26,5.44,3.63,11.59,8.3,15.65,8.3,6.59,0,13.87,10.46,17.28,11.14,3.41.68,2.73,9.55,1.14,13.87-1.59,4.32-1.82,7.96,3.41,15.46,5.23,7.5,6.37,20.69,9.78,27.28,3.16,6.11,2.43,14.5,2.85,18.78,3.16-5,7.46-10.37,11.77-11.56,1.63-.45,3-.9,4.21-1.29,4.31-1.4,7.14-2.33,11.53.37,3.05,1.88,7.64,2.2,8.98,1.07.16-.13.52-.44.05-1.61-.83-2.07-3.23-4.54-5.35-6.71-2.84-2.92-5.09-5.23-4.96-7.52.05-.9.46-1.69,1.18-2.28,3.85-3.17,15.52.81,21.97,4.77.41-2,.96-4.01,1.49-5.87.62-2.21,1.21-4.3,1.36-5.74.5-4.8-3.73-11.6-6.97-14.66-.87-.83-1.25-1.88-1.07-2.96.55-3.22,6.02-5.91,13.13-9.09,1.2-.54,2.27-1.01,3.04-1.4,1.63-.81,2.65-2.12,2.89-3.69.32-2.13-.85-4.59-3.29-6.92Z"/>
  </g>
  <g>
    <path class="st23" d="M544.74,826.53c4.55-.23,5.68-3.87,8.19-8.41,2.5-4.55.45-6.82-3.18-9.55-3.64-2.73-3.18,2.27-8.64,2.27s-4.55,6.14-2.73,8.18c1.82,2.05,1.82,7.73,6.37,7.5Z"/>
    <path class="st23" d="M580.89,841.77c4.77.91,6.59,7.5,7.73,4.32s.91-7.5-1.82-7.5-8.04-2.62-11.82-3.41c-3.97-.82-2.73,1.59-2.5,3.41.23,1.82,3.64,2.27,8.41,3.18Z"/>
    <path class="st23" d="M585.67,850.41c-2.96-2.05-4.55-5.23-7.05-5.23-3.64,0-2.05,1.82-1.82,4.32.23,2.5,2.27,2.96,3.89,7.96,1.62,5-.03,7.73,4.29,8.19,4.32.45,2.27-2.73,2.5-7.28.23-4.55,1.14-5.91-1.82-7.96Z"/>
    <path class="st23" d="M606.36,873.37c6.59.23,7.73.91,7.28-2.27-.45-3.18-7.5-6.37-13.64-6.37s-4.77-5.38-7.5-5.23c-4.09.23.91,5.68-1.59,7.15-2.5,1.47-.91,2.17-1.63,5.35-.72,3.18,10.5,1.14,17.09,1.36Z"/>
    <path class="st23" d="M613.72,866.66c2.87,2.62,5.37,4.44,8.32,3.76,2.96-.68.23-8.19-5.68-9.78-5.91-1.59-13.62-8.19-14.88-3.64-.63,2.26,9.38,7.03,12.24,9.65Z"/>
    <path class="st23" d="M636.5,877.27c.91.21,1.99-.22,2.34-1.09.35-.87-.29-2.04-1.22-2.06l.14-.15c-.54-.8-1.28-1.7-2.23-1.58-.63.07-1.14.62-1.3,1.24-.16.62-.02,1.28.25,1.85.4.85,1.12,1.59,2.04,1.8Z"/>
    <path class="st23" d="M626.19,886.08c.65.05,1.24-.43,1.52-1.01.29-.58.33-1.25.37-1.89.05-.81.1-1.63.15-2.44.04-.72.03-1.56-.55-1.98-2.62-1.89-3.13,5.01-2.82,6.1.17.62.69,1.17,1.33,1.22Z"/>
    <path class="st23" d="M668.51,857.35c-1.16-.58-3.61.1-4.84.21-.79.07-1.74.26-1.99,1.01-.15.45.03.96.36,1.3.33.34.77.54,1.22.69,1.26.41,2.63.46,3.91.13,1.03-.26,2.13-.96,2.15-2.02,0-.55-.32-1.09-.81-1.33Z"/>
    <path class="st23" d="M693.66,856.55c-3.18-1.71-9.32-2.91-11.03-1.12-1.71,1.8-4.43,1-4.21,4.87.18,3.1,2.73-1.43,6.03-1.28,3.3.14,6.25-.72,6.14,3.98-.11,4.69-.23,6.06,2.05,6.17,2.27.11,2.39-1.25,2.39-4.55s1.82-6.37-1.36-8.07Z"/>
    <path class="st23" d="M649.54,927.93c-.46-.08-.95-.1-1.39-.26-.51-.18-.57-.44-.93-.78-.72-.69-1.97-.95-2.93-.91-1.16.05-2.3.57-3.1,1.4-.53.56-.93,1.42-.54,2.09.33.58,1.08.73,1.74.82,2.12.28,4.26.42,6.4.41.53,0,1.08-.02,1.56-.24.48-.22.89-.7.85-1.23-.05-.76-.91-1.18-1.66-1.31Z"/>
    <path class="st23" d="M642.85,934.95c-.82-.28-2.46-.32-3.35-.25-.54.04-1.08.19-1.45.46-.37.28-.54.71-.33,1.06.17.28.55.47.96.56.41.09.85.09,1.27.07.8-.04,1.59-.14,2.36-.3.53-.11,1.12-.31,1.26-.69.14-.37-.24-.75-.72-.92Z"/>
    <path class="st23" d="M647.74,898.38c-5-4.32-6.59-9.32-12.73-9.78-6.14-.45-7.5,1.36-10.69,5-3.18,3.64-20.69,9.55-28.42,11.37-7.73,1.82-9.55.23-10-2.96-.45-3.18,3.18-2.5,8.87-2.27s15.92-6.14,21.83-7.73c5.91-1.59,1.36-5.46-1.82-10.69-3.18-5.23-11.37-4.09-24.1-5.46-12.73-1.36-16.14-14.55-16.83-22.96-.68-8.41-10.91-12.51-16.37-17.51-5.46-5-10.46-3.18-17.51-4.09-7.05-.91-8.19-7.28-8.64-14.78-.45-7.5-7.96-9.55-10.91-13.64-2.96-4.09-8.64-5.23-12.28-1.82-3.64,3.41-.68,5.68,3.41,10,4.09,4.32,3.41,10,1.59,12.96-1.82,2.96-4.09-3.18-5.46-7.5-1.36-4.32-6.59-7.96-11.82-8.87-5.23-.91-12.51-9.32-12.73-15.01-.02-.52-.09-1.05-.16-1.58-.85,4.49-1.23,8.87-.25,11.22,1.31,3.15,1.1,6.36.89,9.46-.26,3.89-.49,7.25,2.33,9.94,3.25,3.1,4.78,6.59,4.29,9.83-.39,2.63-2.11,4.88-4.7,6.18-.8.4-1.91.9-3.17,1.46-2.69,1.2-10.88,4.87-11.2,6.6,3.78,3.47,8.71,11.19,8.07,17.4-.18,1.73-.8,3.95-1.47,6.31-1.43,5.09-3.22,11.43-.88,14.11.92,1.05,1.64,2.04,2.29,2.94,2.2,3.03,3.2,4.42,9.2,3.48,4.76-.73,10.22.96,15.02,4.67,3.83,2.97,6.3,6.54,6.6,9.57.3,2.95-1.58,5.53-3.39,8.02-2.71,3.73-3.71,5.59-1.96,7.75,2.2,2.71,5.29,5.64,8.27,8.47,3.39,3.22,6.59,6.26,8.69,9.08,7.51,10.09,12.78,15.56,15.67,16.24,4.02.94,14.96,8.73,19.79,12.26,1.63-4.42,7.39-8.09,13.06-10.25,4.72-1.79,8.79,1.66,12.71,5.01,1.87,1.59,3.81,3.24,5.71,4.21,3.13,1.6,4.97-.24,9.42-5.91,1.19-1.51,2.47-3.15,3.93-4.8,4.6-5.2,21.56-5.08,33.16-4.32-3.3-2.81-1.34-7.43-.29-14.78,1.14-7.96-1.59-5.23-4.32-7.96-2.73-2.73,1.14-1.59,5.91-5.91,4.77-4.32,12.73-4.77,17.73-8.87,5-4.09-1.36-9.78-6.37-14.1Z"/>
  </g>
  <g>
    <path class="st8" d="M698.21,918.69c-2.73-.76-2.26-5.88-4.55-4.4-3.03,1.97-3.79,6.06-3.94,8.18-.15,2.12.91,3.79,3.94,1.97,3.03-1.82,6.82.15,7.12-2.12.3-2.27.15-2.88-2.58-3.64Z"/>
    <path class="st8" d="M709.83,923.68c-.49-.77-1.29-.79-2.18-.67-.55.07-1.11.31-1.44.76-.34.44-.4,1.12-.05,1.55.21.26.53.41.74.66.4.49.32,1.26.71,1.76.42.53,1.27.54,1.83.16.55-.39.83-1.07.91-1.74.1-.83-.07-1.77-.52-2.48Z"/>
    <path class="st8" d="M690.48,932.49c-2.58-1.21-2.27,2.18-7.43,3.28-3.01.64-1.67,2.41-.61,4.22,1.06,1.82,3.87,3.11,5.68,1.36,1.82-1.74,3.79-.91,4.85-3.18,1.06-2.27-.02-4.52-2.5-5.68Z"/>
    <path class="st8" d="M685.02,971.59c0-5.46-.45-7.73-3.64-6.81-3.18.92-8.18,1.35-12.05-.92-3.87-2.27-8.18-2.73-11.6.45-2.68,2.5-11.81-5.66-17.81-10.6-13.68-1.21-31.84-1.34-35.52,2.82-1.42,1.6-2.66,3.18-3.81,4.65-4.14,5.26-7.71,9.81-13.57,6.82-2.26-1.15-4.34-2.93-6.36-4.65-3.33-2.84-6.47-5.52-9.36-4.43-5.78,2.2-11.82,6.24-11.41,9.9.58,5.26-1.74,8.84-6.72,10.38-.31.36-.36,2.48-.39,3.75-.09,3.92-.22,9.85-6.02,11.51-2.86.82-4.41,2.19-5.91,3.52-2.33,2.06-4.74,4.2-10.83,3.46-1.94-.23-7.81-.94-8.7-.18.03,0-.03.49.7,1.93.76,1.51,2.22,3.75,3.77,6.12,3.08,4.71,6.48,9.94,7.47,13.91,1.93-.35,3.7-.1,5.18.99,3.41,2.52,5.14,6.31,6.68,9.66,1.54,3.37,2.87,6.28,5.44,7.32,1.36.56,2.86,1.1,4.41,1.65,4.89,1.76,10.34,3.73,13.98,7.05,2.18-2.54,6.51-6.83,10.42-6.02,1.44.29,3.09,1.04,4.84,1.83,3.65,1.66,7.79,3.54,10.92,1.78,6.34-3.6,10.7-7.83,11.09-10.78.64-4.82,1.87-6.8,7.6-6.44,1.18.07,2.39.24,3.57.4,3.95.55,5.43.54,5.79-.62.19-.62.37-1.31.54-2,.72-2.83,1.4-5.5,3.54-6.04,1.23-.32,2.48.23,3.74,1.58.72.78,1.48,1.71,2.26,2.66,1.07,1.3,2.96,3.62,3.94,4.2.03-.09.07-.21.12-.35.55-1.98,1.46-3.59,2.26-5.02,1.52-2.69,1.96-3.76.99-5.27-1.12-1.75-1.39-3.7-.78-5.64.96-3.04,4.05-5.81,8.48-7.63,1.57-.64,2.98-1.48,4.34-2.29,3.79-2.25,7.71-4.57,13.61-1.53,5.47,2.81,15.27.11,22.8-8-.2-1.14-.59-2.33-1.28-3.6-2.73-5-2.73-14.1-2.73-19.55Z"/>
  </g>
  <g>
    <path class="st20" d="M574.75,1177.58c-2.16,2.16.45,5.68,5.46,7.5,5,1.82-.23-12.73-5.46-7.5Z"/>
    <path class="st20" d="M635.44,1132.77l-.43.06c-2.93.4-5.34-.15-7.18-1.65-3.06-2.5-3.67-6.98-3.87-10.13-.08-1.32-.81-2.6-2.05-3.6-1.86-1.5-4.52-2.16-7.12-1.78-6.03.91-10.72-3.18-14.87-6.79l-.62-.54c-1.1-.95-1.59-2.29-1.37-3.75.78-5.34,11.31-12.18,15.37-14.01,1.77-.8,1.88-1.79,1.92-2.12.2-1.78-1.56-4.5-4.18-6.46-3.73-2.8-6.44-3.03-10.73-.88-3.51,1.76-5.92,1.28-7.34.57-2.03-1.02-3.39-3.17-3.93-6.21-.78-4.43-1.05-5.93-8.19-6.51-6.51-.52-8.46-5.46-10.18-9.82-.84-2.13-1.64-4.14-2.89-5.65-2.93-3.53-8.77-5.64-13.93-7.49-1.6-.58-3.14-1.13-4.55-1.71-3.78-1.55-5.52-5.35-7.21-9.03-1.43-3.13-2.91-6.36-5.63-8.37-1.54-1.14-5.84-1.25-17.52,9.7,1.92,2.57,4.25,5.05,7.38,6.82,8.87,5,13.41,18.64,15.69,22.74,2.27,4.09,23.87,22.74,30.69,24.33,6.82,1.59,7.5,9.09,7.5,14.78s10.46,15.23,17.51,17.05c7.05,1.82,17.05,15.69,23.87,17.96,5.94,1.98,16,13.42,22.86,16.8,1.25-1.72,3.13-4.02,5.21-5.46-4.1-20.23-7.52-19.81-14.22-18.86Z"/>
  </g>
  <g>
    <path class="st2" d="M876.01,1051.06c-.57-4.77-5.34-5.8-9.66-5.91-4.32-.11-6.86-2.84-12.28-3.52-3.08-.39-6.14-.8-5.91,3.52.23,4.32-2.96,7.28-1.93,11.28,1.02,4.01-1.48,8.84-.57,11.91.91,3.07,2.27,3.52,5.34,2.18,3.07-1.34,2.39-6.27,6.48-6.81,4.09-.53,2.39,1.44,4.32,4.06,1.93,2.61,3.75,3.86,5.57,1.48,1.82-2.39,4.89-4.89,5.8-7.96s3.41-5.46,2.84-10.23Z"/>
    <path class="st2" d="M782.56,1036.16c-8.64-1.59-10.69-19.55-10-26.83.68-7.28-5-9.32-5.87-14.55-.87-5.23-1.86-5.68-8.45-5.68s-5.68.91-6.14,5.23c-.45,4.32,4.09,7.5.91,8.41-3.18.91-5.68.23-5.91-4.77-.23-5-4.06-7.7-9.78-6.14-5,1.36-4.77,5.23-2.5,7.96,2.27,2.73-.23,5.23-4.77,6.14-4.55.91-7.05,2.27-7.28,6.82-.23,4.55,9.78,5.68,14.55,4.32,4.77-1.36,15.46-2.05,16.6,2.27s2.27,11.6,5.91,13.64c3.64,2.05,1.14,7.5.91,12.51-.23,5,3.87,7.96,9.01,7.73,5.14-.23,8.73,5.91,14.64,7.05,5.91,1.14,9.32,5.68,13.64,5.46,4.32-.23.45-4.77-2.73-6.14-3.18-1.36-2.05-5.68,1.36-10.91,3.41-5.23,5.91-4.77,5.46-8.41-.45-3.64-10.91-2.5-19.55-4.09Z"/>
    <path class="st2" d="M807.02,1060.02c-.97.46-3.07,1.15-2.51,2.64.23.61.93.92,1.58,1.01.7.1,1.44.03,2.07-.3.63-.33,1.13-.93,1.24-1.63.24-1.51-1.16-2.29-2.38-1.72Z"/>
    <path class="st2" d="M759.83,1061.4c-5.91-.23-5.46-2.73-5.46-7.73s-.45-7.28-4.77-7.73c-4.32-.45-3.18-6.14-7.96-11.37-4.77-5.23-12.5-2.96-20.24-2.27-7.73.68-8.64-3.18-13.06-2.5-4.42.68-2.85,2.73-4.22,8.64-1.36,5.91-11.82,12.96-13.64,10.46-1.82-2.5,9.09-10.91,7.96-13.87-1.14-2.96-5.23-3.64-.68-5.23,4.55-1.59,9.09-5,10.23-9.55,1.14-4.55-.45-5-5.23-5s-5.46-4.55-9.09-4.09c-3.64.45-6.82-3.41-5.91-7.28.33-1.4.78-2.81,1.09-4.27-8.32,7.35-18.18,9.16-24.13,6.1-4.26-2.19-6.83-.67-10.38,1.44-1.47.87-2.99,1.77-4.78,2.51-3.46,1.41-5.91,3.49-6.56,5.54-.31.99-.18,1.91.41,2.82,2.15,3.35.54,6.2-.89,8.73-.75,1.32-1.51,2.68-1.95,4.26-.46,1.65-1.3,2.61-2.52,2.87-2.44.52-4.71-2.27-7.35-5.49-.73-.9-1.46-1.78-2.13-2.51-.2-.22-.36-.36-.48-.45-.4.69-.84,2.39-1.11,3.46-.19.75-.38,1.5-.59,2.17-1.27,4.09-5.81,3.45-9.45,2.94-1.09-.15-2.21-.31-3.3-.38-3.59-.2-3.62,0-4.09,3.54-.8,6.04-9.97,11.67-12.75,13.25-4.61,2.61-9.79.26-13.96-1.64-1.56-.71-3.04-1.38-4.11-1.6-1.9-.4-5.35,2.68-7.56,5.33,1.11,1.68,1.89,3.57,2.62,5.43,1.8,4.57,3.12,7.38,7.34,7.72,9.25.75,10.29,4,11.22,9.25.24,1.36.81,3.13,2.14,3.8,1.32.67,3.08.06,4.34-.57,5.46-2.73,9.45-2.39,14.23,1.2,2.79,2.09,5.9,5.83,5.49,9.51-.16,1.47-.96,3.49-3.87,4.79-4.86,2.18-12.98,8.31-13.44,11.45-.06.38.04.55.26.73l.62.54c3.77,3.28,7.67,6.68,12.17,6,3.52-.53,7.14.4,9.72,2.48,1.98,1.6,3.15,3.73,3.29,6,.16,2.53.6,6.07,2.65,7.75,1.1.9,2.61,1.2,4.6.93l.43-.06c8.56-1.18,13.34-.74,17.82,20.84,1.23-.13,2.37.19,3.31.99,1.39,1.19,2.16,2.53,2.83,3.7,1.34,2.33,2.22,3.87,8.14,3.39l2.7-.21c4.68-.35,8.37-.63,9.46-2.09.54-.72.6-1.96.2-3.81-.25-1.17-.59-2.37-.92-3.57-1.84-6.6-4.14-14.81,8.14-18.81,3.48-1.13,6.77-2.05,9.96-2.93,8.37-2.32,14.99-4.15,18.71-8.25,2.4-2.65,3.07-4.4,3.66-5.95.71-1.87,1.38-3.63,4.59-5.24,1.42-.71,2.23-1.94,3.09-3.25,1.57-2.39,3.73-5.66,9.84-2.27,3.05,1.7,5.53,4.99,8.15,8.49,2.87,3.82,5.8,7.7,9.58,9.67.69-3.26,2.43-7.04,4.92-8.53,3.41-2.05,4.32-7.28.68-9.32-3.64-2.05-2.96-2.96-4.55-7.5-1.59-4.55,3.41-11.6,8.19-15.46,4.77-3.87,2.96-9.32,2.5-13.41-.45-4.09-.23-4.32-6.14-4.55Z"/>
  </g>
  <g>
    <path class="st10" d="M385.48,931.45c-1.02,1.55-1.18,3.63-.41,5.32.27.59.66,1.15,1.21,1.49.55.34,1.29.43,1.85.11.59-.33.88-1.01,1.13-1.64.64-1.62,1.28-3.24,1.91-4.86.25-.63.5-1.31.34-1.96-.67-2.75-5.26.37-6.03,1.54Z"/>
    <path class="st10" d="M421.74,983.11c-4.09-3.94-9.4-13.64-9.85-18.95-.45-5.31-3.64-4.22-6.97-4.09-2.88.11-3.49,1.36-3.49,5.31s-2.27,4.7-2.12,9.85,9.09,15.16,12.28,18.04,4.55,7.73,8.34,8.03c3.79.3,5.76,2.73,6.82-4.09s-.91-10.16-5-14.1Z"/>
    <path class="st10" d="M447.2,1017.57c-1.09.41-1.54,1.72-1.56,2.88-.03,2.09.95,4.18,2.58,5.49.84.67,2.03,1.15,2.98.63.88-.48,1.16-1.63,1.1-2.63-.11-1.76-2.56-7.32-5.1-6.37Z"/>
    <path class="st10" d="M469.03,1041.77c-2.67-1.49-3.49,2.88-1.97,4.55,1.52,1.67.61,7.28,3.49,5.91,2.88-1.36,4.55-1.52,4.7-4.85.15-3.33-3.86-4.29-6.21-5.61Z"/>
    <path class="st10" d="M484.95,1060.42c-3.94-1.97-4.55-6.37-6.67-3.49s-.3,4.09,2.73,7.58c3.03,3.49,4.85,3.49,6.97,1.36,2.12-2.12-.63-4.26-3.03-5.46Z"/>
    <path class="st10" d="M536.51,957.06c-3.84-.9-9.26-6.3-17.59-17.5-1.93-2.59-5.03-5.53-8.31-8.65-3.06-2.91-6.22-5.91-8.56-8.78-3.56-4.37-.56-8.5,1.85-11.82,1.51-2.08,2.94-4.05,2.77-5.73-.2-2.03-2.34-4.95-5.32-7.26-4.01-3.11-8.68-4.61-12.46-4.01-7.64,1.19-9.7-1.06-12.43-4.83-.6-.83-1.26-1.74-2.1-2.7-1.72-1.97-2.1-4.73-1.86-7.71-6.04-4.34-17.3-7.45-19.29-5.82.02.75,2.54,3.34,4.05,4.89,2.45,2.52,4.98,5.12,6.05,7.8.87,2.17.5,4.14-1.01,5.41-2.88,2.43-9.11,1.54-12.88-.78-3.07-1.89-4.61-1.39-8.74-.04-1.25.41-2.67.87-4.36,1.34-3.53.97-7.59,6.42-10.51,11.2,4.47,1.89,15.18,1.86,21.16,3.13,7.5,1.59,7.28,13.19,9.32,19.33,2.05,6.14,9.55,10.69,16.82,17.51,7.28,6.82,12.5,21.14,12.05,26.15-.45,5,11.82,10,11.82,16.83s6.59,14.32,11.37,21.37c4.77,7.05-2.96,16.37,1.82,18.87,2.48,1.3,4.36,4.82,6.83,8.6,4.13-3.86,8.82-7.73,13.08-9.6-.71-3.33-4.34-8.9-7.08-13.1-1.67-2.56-3.12-4.77-3.96-6.45-.75-1.5-1.61-3.69-.42-5.37,1.46-2.08,4.83-2.04,11.82-1.19,4.61.55,6.04-.72,8.21-2.65,1.61-1.43,3.62-3.21,7.21-4.23,3.19-.91,3.5-4.04,3.6-8.37.07-2.98.13-6.06,2.75-6.87,3.16-.97,4.51-2.97,4.37-6.15-6.62-4.93-16.96-12.07-20.07-12.8Z"/>
  </g>
  <path class="st3" d="M757.33,1131.43c-2.65-1.77-3.15-4.41-3.39-7.69-5.07-2.1-8.68-6.85-11.96-11.22-2.4-3.2-4.67-6.22-7.1-7.57-3.41-1.89-3.87-1.18-5.42,1.18-.96,1.47-2.16,3.29-4.38,4.4-2.05,1.03-2.34,1.78-2.97,3.43-.62,1.64-1.48,3.9-4.31,7.01-4.37,4.81-11.75,6.85-20.29,9.22-3.15.87-6.41,1.78-9.82,2.89-9.23,3.01-7.86,7.93-5.96,14.73.35,1.26.71,2.52.97,3.76.62,2.88.37,4.95-.79,6.51-2,2.68-6.15,2.99-11.89,3.42l-2.68.21c-.78.07-1.51.1-2.18.1-5.67,0-7.46-2.25-9.13-5.15-.6-1.03-1.16-2.01-2.11-2.83-.24-.21-.47-.26-.79-.22-1.46.23-3.55,2.33-5.28,4.54,6.3,1,10.98,7.4,16.71,15.56,5.91,8.41,11.6,15.46,17.05,19.78s10.46,14.78,13.87,15.01,2.73-.23,3.18-4.55c.45-4.32-3.64-8.18-6.37-11.6-2.73-3.41-.45-5.91,3.18-6.82,3.64-.91,11.6,6.14,14.32,8.41,2.73,2.27,9.32,5,13.64,4.55,4.32-.45,2.27-14.78,5.23-15.01,2.96-.23,2.73.91,4.32,4.32,1.59,3.41,4.09,4.32,8.64,6.59,4.55,2.27,3.41,8.19,8.41,8.19s3.87-5.23,4.77-10.46-.91-21.14.68-26.15c1.59-5,4.09-9.32,3.64-16.83-.45-7.5.91-15.92-1.82-17.73Z"/>
  <g>
    <path class="st21" d="M734.86,1251c-.46-.42-.74-.99-1.26-1.38-.55-.41-1.3-.63-1.95-.38-.76.29-1.18,1.16-1.18,1.97,0,.81.34,1.59.71,2.31.39.77.86,1.56,1.61,1.99,1.13.65,2.75.19,3.37-.95.48-.87.3-2.01-.32-2.77-.28-.35-.67-.5-.99-.79Z"/>
    <path class="st21" d="M798.51,1224.91c-1.58-3.27-1.13-7.92-.36-11.58-.4-.03-.81-.05-1.26-.05-7.73,0-15.23-4.55-18.42-2.73-3.18,1.82-7.66-.13-11.79-2-4.13-1.87-4.81,6.32-8.9,10.41-4.09,4.09,2.05,12.96-2.05,15.46-4.09,2.5-6.14,6.59-10.23,8.18-4.09,1.59-8.19,4.77-5.23,9.55,1.81,2.93,5.46,3.41,12.28,1.59,6.82-1.82,10.91-3.79,17.05-.19,5.95,3.49,6.4,5.51,12.43,6.25,4.71-3.74,5.93-6.14,6.01-7.54.08-1.46-1-2.53-2.55-3.88-.62-.54-1.18-1.05-1.57-1.53-2.75-3.44-1.32-9.72.45-15.4.44-1.43,1.24-2.4,2.36-2.89,2.19-.96,4.77.28,7.49,1.59,1.78.85,3.61,1.73,4.97,1.79.86.04,1.24-.14,1.31-.25.17-.26.54-1.53-1.99-6.78Z"/>
  </g>
  <path class="st5" d="M898.23,1287.07c-.19-1.29-.36-2.41-.44-3.21-.12-1.29-1.28-2.12-3.04-3.23-1.51-.96-3.07-1.95-3.56-3.68-.62-2.19-.34-4.3.78-5.78.72-.95,2.12-2.08,4.71-2.08,1.83,0,3.16-.42,3.94-1.26.82-.88,1.18-2.34,1.05-4.36-.18-2.8.91-6.52,2.17-9.79-3.61.87-6.25,1.27-7.83-1.75-2.73-5.23-1.14-14.1-4.55-15.01-3.41-.91-8.41-4.55-8.87-7.28-.45-2.73.91-5-4.55-5s-3.18,5.68-7.73,5.46c-4.55-.23-10.69-7.73-14.78-7.28-4.09.45-3.41,4.77-8.41,3.41-5-1.36-9.78-13.87-15.23-14.32-5.46-.45-12.28-5-15.01-1.36-.89,1.18-1.46,2.35-2.01,3.42.58,3.71,1.05,9.53-.8,13.35-1.53,3.16-3.04,5.4-5.45,6.07-.46.13-.93.19-1.42.19-1.05,0-2.21-.33-3.5-.94-.1.31-.24.62-.42.89-.82,1.24-2.22,1.82-4.24,1.76-2.05-.08-4.2-1.12-6.29-2.12-1.65-.8-3.91-1.87-4.71-1.54-.25.11-.42.56-.5.82-.75,2.43-3.05,9.8-1.03,12.32.28.36.71.71,1.16,1.11,1.54,1.35,3.86,3.38,3.68,6.58-.13,2.37-1.65,4.89-4.62,7.7,4.08.15,6.49.14,6.49,2.92,0,3.64,0,7.28-4.32,8.64-4.32,1.36-4.77,2.05-4.32,5.23.45,3.18,1.36,4.77,12.96,4.77s22.96.68,31.38,3.64c8.41,2.96,17.51,5.91,23.42,8.64,5.91,2.73,14.55,7.5,25.01,7.5s11.14,1.36,11.6-3.41c.34-3.56,5.86-2.45,10.15-2.78-.08-2-.37-4.74-.89-8.24Z"/>
  <path class="st7" d="M801.52,1223.45c.88,1.82,1.66,3.64,2.09,5.31,1.86,1.17,3.23,1.63,4.14,1.4,1.01-.28,2.01-1.57,3.33-4.3,1.03-2.14,1.1-5.44.84-8.45-.72.36-1.59.6-2.76.65-3.88.17-4.51-2.54-7.73-3.95-.67,3.26-1.03,7.04.09,9.35Z"/>
  <g>
    <path class="st14" d="M1111.41,1270.8c6.37.45,5.76,2.73,16.07,2.73s11.52-1.97,15.01-4.4c3.49-2.43,4.85-.3,10.16-1.36,5.3-1.06,4.55-3.94,8.94-4.7,4.4-.76,3.64-1.67,3.49-5.15-.15-3.49-3.64-1.97-7.12-1.36-3.49.61-45.47-1.21-48.66.15-3.18,1.36-8.34,3.94-8.03,9.4.13,2.42,3.79,4.24,10.16,4.7Z"/>
    <path class="st14" d="M1192.73,1346.97c0-2.27-10.23-1.82-10.69-6.82-.45-5-1.82-10.69-1.36-17.73.45-7.05,3.64-5.91,3.18-13.19-.46-7.28.68-10-5.23-10.91-5.91-.91-11.6-5.23-15.46-3.41-3.87,1.82-8.64,3.41-14.78,3.64-6.14.23-10.91-2.96-13.19.45-2.27,3.41-2.05,4.55-6.37,4.32-4.32-.23-9.78-7.28-17.05-8.18-7.28-.91-12.73-3.18-11.82-7.28.91-4.09,4.32-5.46,3.87-8.87-.45-3.41-1.59-5-6.37-4.77-4.77.23-5.68-3.18-5.68-7.28s-1.14-9.09-6.14-8.87c-5,.23-9.55-2.73-12.28-.68-2.73,2.05-6.14,3.87-7.96,2.27-1.82-1.59-1.59-9.18-6.59-8.11l-5,1.07s-5.11,1.7-8.57-2.47c-.69,3.8-1.31,8.27-1.06,11.04l.05.51c.59,6.27,1.41,14.85-5.59,16.44-2.7.61-5.99-.03-8.9-.6-2.15-.42-5.11-1-5.91-.44-.04.03-.13.09-.18.4-.8,5.18-.96,17.39,3.75,19.9,2.99,1.59,4.58,4.2,4.37,7.18-.23,3.19-2.57,6.2-5.7,7.32-5.58,2.01-11.75,5.64-13.35,11.99,17.1.78,14.05-2.01,20.38,1.49,6.59,3.64,4.55,3.41,10.46,3.87,5.91.45,4.77-4.32,9.32-4.32s10,4.84,16.6,4.35c6.59-.49,16.83-.71,19.1,1.56s3.87,4.55,10.69,2.05c6.82-2.5,8.64-1.59,13.87-4.55,5.23-2.96,7.5-2.27,11.6-2.27s6.82,4.09,12.96,6.14c6.14,2.05,19.78,11.14,28.42,11.14s12.05-1.36,14.32,2.05c2.27,3.41,5.23,5,9.09,5.23,3.87.23,3.18-1.36,3.18-3.64Z"/>
  </g>
  <path class="st15" d="M1001.87,1307.78c-.29-2.04-.88-2.23-5.22-1.8-1.3.13-2.72.27-4.21.27-4.12,0-5.43-4-6.49-7.21-.94-2.87-1.61-4.62-2.94-4.62-2.09,0-3.42,1.13-4.84,2.33-1.56,1.32-3.5,2.97-6.25,2.01-.8.32-2.17,3.53-3.28,7.51,1.25.49,2.38,1.02,3.32,1.58,6.71,4.02,15.7,11.75,30.07,14.76.51-4.38.49-10.34-.16-14.84Z"/>
  <path class="st22" d="M970.36,1295.89c.86-.49,1.78-.59,2.66-.27.83.29,1.37-.05,2.98-1.41,1.56-1.32,3.69-3.12,7-3.12,3.84,0,5.1,3.84,6.11,6.92,1,3.06,1.73,4.91,3.31,4.91,1.37,0,2.68-.13,3.87-.26,3.61-.36,8.09-.82,8.87,4.65.02.14,1.04,8.89.14,15.9,1.3.19,2.64.35,4.02.46,1.36-6.53,6.7-11.71,15.61-14.92,1.89-.68,3.36-2.54,3.5-4.41.12-1.65-.78-3.03-2.61-4-6.89-3.66-6.3-18.1-5.49-23.36.22-1.42.97-2.21,1.56-2.62,1.96-1.38,4.97-.79,8.47-.11,2.58.5,5.51,1.06,7.53.62,3.82-.86,3.62-6.34,3-12.86l-.05-.51c-.38-4.11.87-11.1,1.78-15.43-1.76-3.09-2.34-4.14-4.29-2.55-2.5,2.05-2.27,3.41-8.41,3.41s-11.37.56-12.05-4.15c-.68-4.71-1.59-9.72-7.96-9.49-6.37.23-10.46,0-12.51,6.59-2.05,6.59-1.14,13.41-5.68,16.6-4.55,3.18-4.09,6.82-9.32,5.68-5.23-1.14-6.59-5.91-10.91-5.23-4.32.68-5.23,3.86-9.78,3.18-4.55-.68-10.69-5-17.73-4.77-7.05.23-9.32,2.96-15.23,2.05-5.91-.91-6.82-5.23-15.46-5.23-1.97,0-3.78.26-5.46.6-1.51,3.5-3,7.78-2.83,10.5.19,2.97-.46,5.28-1.94,6.86-1.44,1.53-3.59,2.31-6.38,2.31-.98,0-1.66.25-2.04.75-.47.62-.56,1.71-.24,2.85.15.51,1.2,1.18,2.14,1.77,1.81,1.15,4.29,2.72,4.57,5.74.07.75.23,1.81.41,3.03.44,2.91.79,5.58.91,7.88.13-.08.27-.14.39-.23,3.64-2.73,4.77-.45,7.73,1.36s16.37,1.14,24.33,3.18c6.3,1.62,20.83,3.39,30.58,6.42,1.01-3.65,2.64-8,4.89-9.29Z"/>
  <g>
    <path class="st5" d="M1344.48,713.2c.55.15,1.14-.03,1.6-.37.84-.63,1.09-2.26-.23-2.52-.82-.16-2.23.82-2.31,1.64-.05.56.39,1.1.94,1.25Z"/>
    <path class="st5" d="M1352.78,710.41c2.35.55,4.85.45,7.15-.29.41-.13.9-.38.9-.82,0-.46-.51-.72-.96-.84-2.45-.69-4.78-.7-7.29-.5-.52.04-1.12.13-1.38.59-.24.41-.06.96.29,1.29.35.32.82.47,1.29.57Z"/>
    <path class="st5" d="M1234,844.62l34.8-21.61,13.6-16.45h69.77c1.76-.73,3.85-1.24,5.55-1.7,3.94-1.06,7.43-4.09,5.46-7.28-1.97-3.18.61-5.76-5-6.82-5.61-1.06-6.37-7.12-6.67-10.76-.3-3.64-2.43-4.09-6.67-4.09s-4.09-4.4-6.82-6.82c-2.73-2.43,3.49-6.06.91-7.58-2.58-1.52-2.88-3.94-6.21-4.24-3.33-.3-9.25-3.79-9.4-7.12-.15-3.33,7.73-2.42,7.48-4.7-.25-2.27-1.57-3.03-5.06-3.33-3.49-.3-5.3-4.7-6.67-6.52-1.36-1.82-5.91.61-6.97-1.06-1.06-1.67,0-2.58,2.73-5,2.73-2.42,12.28,1.36,16.98,1.78,4.7.42-.45-6.94,2.42-8,2.88-1.06,4.55,4.7,7.12,6.21,2.58,1.52,6.21,2.73,7.73.76,1.52-1.97,1.21-5-3.33-6.06-4.55-1.06-8.94-6.37-9.09-8.79-.15-2.43.91-3.49-4.4-3.94-5.31-.45-1.82-4.85-4.24-8.94-2.43-4.09-9.25-3.79-15.31-3.64,0,0-10.76-.61-19.13-.41-8.37.2-7.85,2.22-14.21,1.77-6.37-.45-7.28-2.58-17.73-1.44-10.46,1.14-7.88,4.47-12.13,7.65-4.24,3.18-6.37,4.55-5.76,10.31.61,5.76-3.33,10.61-3.94,13.49-.61,2.88,3.94,8.79,1.36,11.37-2.58,2.58-2.88,10.16-1.36,13.19,1.52,3.03,1.21,6.52-5.61,9.25-6.82,2.73-10.76,1.67-13.95,3.79-3.18,2.12-2.42,10.46-2.42,13.64s6.52,2.73,6.52,7.12-4.4,3.79-8.64,5c-4.24,1.21-1.52,6.37-7.58,6.37s-6.37,4.24-6.37,7.73,6.06,3.79,4.09,9.7-7.58,3.79-7.58,9.25c0,3.27-1.74,5.02-3.14,6.9,7.09,1.83,15.4,4.23,16.66,5.76,1.32,1.03,12.21,3.46,22.22,5.27Z"/>
    <path class="st5" d="M1409.1,864.73c-.15-2.12-.45-3.03-3.18-2.58-2.73.45-4.4-.61-4.7-3.94-.3-3.33-4.24-9.4-10.91-11.67-6.67-2.27-11.97-9.09-22.43-15.16-10.46-6.06-13.49-12.28-13.94-15.46-.46-3.18-4.4-1.36-5.31-5-.19-.77-.06-1.43.29-2.02h-65.4l-13.14,15.9-35.9,22.28-.44-.08c-10.34-1.85-22.92-4.44-24.14-6.27-.89-.83-8.25-3.04-16.02-5.04-.28.7-.46,1.46-.46,2.36,0,4.7-1.82,5.61-9.55,5-2.93-.23-6.29-.24-9.62-.17.65,4.97.76,10.69-1.75,12.44-.72.5-1.99,1.25-3.51,2.14-2.82,1.65-11.39,6.68-11.61,8.58.25.33.62.87,1.01,1.44,2.04,3,5.47,8.01.37,13.39-.61.64-1.27,1.48-1.96,2.39,2.05-.23,4.86-.89,7.75-2.73,4.06-2.58,6.74-1.51,9.59-.38,2.19.87,4.66,1.86,8.7,1.67,4-.18,7.63-2.14,11.15-4.04,4.48-2.42,9.12-4.92,13.96-2.94,5.47,2.23,9.28,5.89,9.95,9.57.39,2.13-.31,4.15-1.95,5.68-1.88,1.74-6.04,6.3-4.04,10.86.98,2.24.54,6.07.08,10.13-.31,2.73-.9,7.8-.08,8.58,1.71-.12,4.16-2.81,6.13-4.98,3-3.29,6.09-6.7,9.4-5.15,1.86.87,3.15,2.29,3.72,4.13.97,3.09-.03,7.24-2.98,12.36-1.89,3.28-.3,6.18,2.53,10.56,1.66,2.57,3.38,5.23,3.51,8.02.29,6.36,1.27,12.85,9.5,16.21,10.71,4.38,11.58,9.91,11.01,14.74-.75,6.41-4.46,9.8-11.02,10.07-1.71.07-3.19.24-4.55.46,2.63,2.39,6.8,6.32,9.63,9.63,2.64,3.09,2.57,6.97,2.52,10.38-.04,2.71-.08,5.04,1.15,6.4,2.37,2.62,2.72,6.34,3.06,9.93.23,2.43.44,4.71,1.26,6.35.39.79.51,1.03,3.84-.23,2.45-.93,5.81-2.19,9.8-1.62,5.14.74,14.25.89,19.48.92.9-1.42,1.74-2.72,1.59-4.14-.3-2.87-2.58-.92-7.28-.16-4.7.76-8.79-1.21-9.09-3.94-.3-2.73.3-2.27,3.18-2.58,2.88-.3,5.31-3.18,5.61-6.37.3-3.18-.76-6.06-2.88-7.73-2.12-1.67-3.18.61-7.28,1.36-4.09.76-3.79-.45-3.33-3.18.45-2.73,1.52-1.82,5.76-2.43,4.24-.61,6.21-4.4,10.16-5.46,3.94-1.06.76-5,.91-8.19.15-3.18,4.7-3.79,8.64-4.55,3.94-.76,1.67-9.55-.15-11.82-1.82-2.27-.45-5.61,3.18-6.37,3.64-.76,4.85,9.7,10.46,9.85,5.61.15,10.46-13.19,13.19-17.13,2.73-3.94,3.49-2.73,6.06.15,2.58,2.88,8.18-2.27,7.28-4.09-.91-1.82-.61-4.55-.45-5.91.15-1.36,4.55-3.33,4.24-5.76-.3-2.43-7.28,1.36-7.73-1.21-.45-2.58,4.24-4.4,3.18-7.58-1.06-3.18-2.73-5.61-.91-8.79,1.82-3.18,3.64-8.79,1.67-15.16-1.97-6.37,5.31-14.25,7.73-21.22,2.42-6.97,6.82-13.19,9.85-14.55,3.03-1.36,7.43,1.82,7.73-1.97.3-3.79-.76-3.64-3.94-6.67-3.18-3.03-1.97-5.46,1.06-5.76,3.03-.3,7.43,5.61,9.09,9.4,1.67,3.79,9.85,3.94,15.46,3.64,5.61-.3,8.79.91,12.13,2.12,3.33,1.21,6.37-2.73,10-3.49,3.64-.76,4.24-1.36,4.09-3.49Z"/>
  </g>
</svg>